<?xml version="1.0" encoding="UTF-8"?>
<svg id="learn-with-rasel" xmlns="http://www.w3.org/2000/svg" viewBox="0 0 948.85 973.04">
  <defs>
    <style>
      .cls-1 {
        fill: #0069b4;
      }

      .cls-2 {
        fill: #007ec3;
      }
    </style>
  </defs>
  <g id="icon">
    <path id="r" class="cls-2" d="M738.12,704.69h10.57c36.2,0,65.65-29.45,65.65-65.65,0-17.54-6.83-34.03-19.23-46.43-12.4-12.4-28.89-19.23-46.43-19.23h-88.55l-35.22,48.06h123.77c9.7,0,17.6,7.89,17.6,17.6s-7.89,17.6-17.6,17.6h-123.77v131.31h48.06v-80.43l80.43,80.43h67.96l-83.25-83.25Z"/>
    <polygon id="w" class="cls-2" points="327.34 573.38 281.78 702.89 258.56 636.84 280.87 573.38 236.25 573.38 229.94 573.38 185.32 573.38 207.62 636.83 184.38 702.89 138.85 573.38 87.92 573.38 163.35 787.94 205.44 787.94 233.1 709.28 260.75 787.94 302.84 787.94 378.27 573.38 327.34 573.38"/>
    <polygon id="l" class="cls-2" points="449.07 319.77 449.07 153.26 401.02 153.26 401.02 367.82 538.23 367.82 566.41 319.77 449.07 319.77"/>
    <g>
      <polygon class="cls-1" points="474.42 793.04 474.42 605.21 474.42 605.21 474.42 793.04 424.73 821.73 474.42 850.42 524.12 821.73 474.42 793.04"/>
      <polygon class="cls-1" points="262.06 915.64 49.7 793.04 49.7 547.82 212.36 453.91 212.36 453.91 212.36 396.52 0 519.13 0 821.73 262.06 973.04 449.57 864.77 399.88 836.08 262.06 915.64"/>
      <polygon class="cls-1" points="424.72 821.73 424.73 821.73 474.42 793.04 474.42 605.21 424.72 576.52 424.72 821.73"/>
      <polygon class="cls-2" points="524.12 576.52 474.42 605.21 474.42 605.21 474.42 793.04 524.12 821.73 524.12 821.73 524.12 576.52"/>
      <polygon class="cls-1" points="212.36 453.91 262.06 425.22 424.72 519.13 424.72 519.13 262.06 425.21 262.06 367.82 262.06 367.82 212.36 396.52 212.36 453.91 212.36 453.91"/>
      <polygon class="cls-1" points="474.42 0 212.36 151.31 212.36 367.83 262.06 339.13 262.06 180 474.42 57.39 686.78 180 686.78 367.82 736.48 396.52 736.48 151.31 474.42 0"/>
      <polygon class="cls-2" points="424.72 519.13 424.72 519.13 262.06 425.22 212.36 453.91 424.72 576.52 424.72 519.13"/>
      <polygon class="cls-1" points="686.78 425.21 524.12 519.13 524.12 519.13 686.78 425.22 736.48 453.91 736.48 453.91 736.48 396.52 686.78 367.82 686.78 425.21"/>
      <polygon class="cls-1" points="761.33 410.86 761.33 468.26 899.15 547.82 899.15 793.04 686.78 915.64 524.12 821.73 474.42 850.42 686.78 973.04 948.85 821.73 948.85 519.13 761.33 410.86"/>
      <polygon class="cls-1" points="524.12 519.13 524.12 519.13 474.42 547.82 424.72 519.13 424.72 519.13 474.42 547.82 474.42 605.21 474.42 605.21 474.42 547.82 524.12 519.13"/>
      <polygon class="cls-1" points="424.72 519.13 424.72 519.13 424.72 576.52 474.42 605.21 474.42 547.82 424.72 519.13"/>
      <polygon class="cls-1" points="524.12 519.13 524.12 519.13 524.12 576.52 736.48 453.91 686.78 425.22 524.12 519.13"/>
      <polygon class="cls-1" points="524.12 576.52 524.12 519.13 524.12 519.13 474.42 547.82 474.42 605.21 474.42 605.21 524.12 576.52"/>
      <polygon class="cls-1" points="262.06 367.82 262.06 425.21 424.72 519.13 474.42 490.43 262.06 367.82"/>
      <polygon class="cls-2" points="474.42 490.43 524.12 519.13 686.78 425.21 686.78 367.82 686.78 367.82 474.42 490.43"/>
      <polygon class="cls-1" points="524.12 519.13 474.42 490.43 424.72 519.13 474.42 547.82 524.12 519.13"/>
    </g>
  </g>
</svg>