<?xml version="1.0" encoding="UTF-8"?>
<svg id="learn-with-rasel" xmlns="http://www.w3.org/2000/svg" viewBox="0 0 1896.95 973.04">
  <defs>
    <style>
      .cls-1 {
        fill: #fff;
      }

      .cls-2 {
        fill: #fff;
      }

      .cls-3 {
        fill: #fff;
      }
    </style>
  </defs>
  <g id="text">
    <g id="rasel">
      <path class="cls-3" d="M1765.42,888.02v-36.01h32.62v-130.22l-32.88-2.35,2.87-34.71h79.07v167.28h32.88l-3.13,36.01h-111.43Z"/>
      <path class="cls-3" d="M1609.37,818.61c0-48.54,35.49-83.51,75.94-83.51,43.84,0,63.68,32.62,58.2,88.99l-85.86,1.57c3.91,19.31,22.7,25.05,82.99,25.57l-3.65,39.67c-103.86,4.96-127.61-23.49-127.61-72.29Zm47.76-18.27c12.53-.26,28.44-.78,40.19-1.04-.78-16.7-6.52-25.57-19.83-25.57s-19.05,7.83-20.35,26.62Z"/>
      <path class="cls-3" d="M1581.7,778.16c-33.66-4.18-49.58-2.87-49.58,4.18,0,12.79,57.41,29.23,57.41,63.41,0,24.01-21.92,47.23-109.08,45.41l1.83-41.23c39.41,2.61,52.45,.52,52.45-7.05,0-12.79-55.58-23.49-55.58-58.46,0-26.1,27.66-51.41,100.99-48.28l1.56,42.02Z"/>
      <path class="cls-3" d="M1404.78,872.36c-10.18,10.44-24.27,19.31-43.06,19.31-25.05,0-41.49-15.14-41.49-39.14,0-29.23,24.53-52.19,81.68-51.67-1.31-18.27-12.53-22.18-74.64-23.49l3.91-41.49c98.64,.52,119,18.27,119,78.81,0,24.79,1.57,52.72,3.13,72.29l-45.67,2.09-2.87-16.7Zm-1.83-21.66c-.26-6.26-.52-14.09-.52-23.75-28.97-3.39-35.75,2.61-35.75,13.83,0,9.66,6.79,14.35,16.96,14.35,6.52,0,13.05-1.56,19.31-4.44Z"/>
      <path class="cls-3" d="M1221.84,832.96l-19.83,.52v54.54h-49.84v-179.28c106.99-10.7,138.83,12.79,138.83,50.37,0,21.92-12.26,37.06-29.49,49.06l44.1,77.77-54.28,4.18-29.49-57.15Zm-19.83-33.66l24.01-.52c9.66-6.52,15.66-15.66,15.66-27.66,0-18.01-13.57-26.36-39.67-24.01v52.19Z"/>
    </g>
    <g id="with">
      <path class="cls-3" d="M1654.26,469.96v104.91h-49.32v-203.03l49.32-3.91v70.72c11.22-9.39,25.57-16.7,44.36-16.7,26.88,0,42.8,14.87,42.8,49.06v103.86h-49.06v-84.55c0-19.57-7.31-25.05-18.53-25.05-7.31,0-13.83,1.83-19.57,4.7Z"/>
      <path class="cls-3" d="M1483.85,519.54v-54.02h-23.23l3.39-39.67h19.83v-36.53l49.32-4.44v40.97h41.49v39.67h-41.49v46.71c0,19.83,9.92,24.27,43.58,25.31l-4.44,39.4c-69.94,2.35-88.47-14.61-88.47-57.41Z"/>
      <path class="cls-3" d="M1331.71,574.87v-36.01h38.1v-75.94l-38.62-2.09,2.87-34.97h84.81v113h36.8l-3.13,36.01h-120.83Zm36.27-167.02l2.35-45.67h50.63l-2.35,45.67h-50.63Z"/>
      <path class="cls-3" d="M1224.72,517.71l-17.75,57.15h-48.02c-5.48-30.27-12-91.6-14.61-149.01h49.06c.52,32.88,1.04,56.11,2.35,90.55h1.3c4.44-12.53,14.88-42.8,17.75-51.67h23.75c2.87,8.87,14.09,39.93,18.53,52.45h1.3c.52-34.71,1.04-58.19,1.31-91.34h47.23c-2.35,57.41-8.87,118.74-14.09,149.01h-49.84l-18.27-57.15Z"/>
    </g>
    <g id="learn">
      <path class="cls-3" d="M1808.74,157.59c.52,27.4,.78,64.2,.78,104.12h-49.06c0-67.33-.52-114.82-2.35-147.71l45.67-2.35,2.35,16.96c11.74-10.7,27.4-19.83,48.02-19.83,26.88,0,42.8,14.87,42.8,49.06v103.86h-49.06v-84.55c0-19.57-7.57-25.05-18.53-25.05-7.83,0-14.61,2.09-20.62,5.48Z"/>
      <path class="cls-3" d="M1603.37,261.71v-36.01h30.27c-.52-32.62-.78-54.8-1.57-75.94l-29.49-2.09,2.87-34.97h70.72l3.13,25.84c11.74-16.18,29.75-28.71,54.28-32.36l-.78,54.28c-19.05,.52-35.75,3.13-51.41,7.83,.52,15.66,.78,31.84,1.3,57.41h36.54l-3.13,36.01h-112.74Z"/>
      <path class="cls-3" d="M1528.73,246.05c-10.18,10.44-24.27,19.31-43.06,19.31-25.05,0-41.49-15.14-41.49-39.14,0-29.23,24.53-52.19,81.68-51.67-1.31-18.27-12.53-22.18-74.64-23.49l3.91-41.49c98.64,.52,119,18.27,119,78.81,0,24.79,1.57,52.71,3.13,72.29l-45.67,2.09-2.87-16.7Zm-1.83-21.66c-.26-6.26-.52-14.09-.52-23.75-28.97-3.39-35.75,2.61-35.75,13.83,0,9.66,6.79,14.35,16.96,14.35,6.52,0,13.05-1.57,19.31-4.44Z"/>
      <path class="cls-3" d="M1286.82,192.29c0-48.54,35.49-83.51,75.94-83.51,43.84,0,63.68,32.62,58.2,88.99l-85.86,1.57c3.91,19.31,22.7,25.05,82.99,25.57l-3.65,39.67c-103.86,4.96-127.61-23.49-127.61-72.29Zm47.76-18.27c12.53-.26,28.44-.78,40.19-1.04-.78-16.7-6.52-25.57-19.83-25.57s-19.05,7.83-20.35,26.62Z"/>
      <path class="cls-3" d="M1152.17,261.71V82.17h51.93V219.7h67.59l-3.39,42.02h-116.13Z"/>
    </g>
  </g>
  <g id="icon">
    <path id="r" class="cls-2" d="M738.12,704.69h10.57c36.2,0,65.65-29.45,65.65-65.65,0-17.54-6.83-34.03-19.23-46.43-12.4-12.4-28.89-19.23-46.43-19.23h-88.55l-35.22,48.06h123.77c9.7,0,17.6,7.89,17.6,17.6s-7.89,17.6-17.6,17.6h-123.77v131.31h48.06v-80.43l80.43,80.43h67.96l-83.25-83.25Z"/>
    <polygon id="w" class="cls-2" points="327.34 573.38 281.78 702.89 258.56 636.84 280.87 573.38 236.25 573.38 229.94 573.38 185.32 573.38 207.62 636.83 184.38 702.89 138.85 573.38 87.92 573.38 163.35 787.94 205.44 787.94 233.1 709.28 260.75 787.94 302.84 787.94 378.27 573.38 327.34 573.38"/>
    <polygon id="l" class="cls-2" points="449.07 319.77 449.07 153.26 401.02 153.26 401.02 367.82 538.23 367.82 566.41 319.77 449.07 319.77"/>
    <g>
      <polygon class="cls-1" points="474.42 793.04 474.42 605.21 474.42 605.21 474.42 793.04 424.73 821.73 474.42 850.42 524.12 821.73 474.42 793.04"/>
      <polygon class="cls-1" points="262.06 915.64 49.7 793.04 49.7 547.82 212.36 453.91 212.36 453.91 212.36 396.52 0 519.13 0 821.73 262.06 973.04 449.57 864.77 399.88 836.08 262.06 915.64"/>
      <polygon class="cls-1" points="424.72 821.73 424.73 821.73 474.42 793.04 474.42 605.21 424.72 576.52 424.72 821.73"/>
      <polygon class="cls-2" points="524.12 576.52 474.42 605.21 474.42 605.21 474.42 793.04 524.12 821.73 524.12 821.73 524.12 576.52"/>
      <polygon class="cls-1" points="212.36 453.91 262.06 425.22 424.72 519.13 424.72 519.13 262.06 425.21 262.06 367.82 262.06 367.82 212.36 396.52 212.36 453.91 212.36 453.91"/>
      <polygon class="cls-1" points="474.42 0 212.36 151.31 212.36 367.83 262.06 339.13 262.06 180 474.42 57.39 686.78 180 686.78 367.82 736.48 396.52 736.48 151.31 474.42 0"/>
      <polygon class="cls-2" points="424.72 519.13 424.72 519.13 262.06 425.22 212.36 453.91 424.72 576.52 424.72 519.13"/>
      <polygon class="cls-1" points="686.78 425.21 524.12 519.13 524.12 519.13 686.78 425.22 736.48 453.91 736.48 453.91 736.48 396.52 686.78 367.82 686.78 425.21"/>
      <polygon class="cls-1" points="761.33 410.86 761.33 468.26 899.15 547.82 899.15 793.04 686.78 915.64 524.12 821.73 474.42 850.42 686.78 973.04 948.85 821.73 948.85 519.13 761.33 410.86"/>
      <polygon class="cls-1" points="524.12 519.13 524.12 519.13 474.42 547.82 424.72 519.13 424.72 519.13 474.42 547.82 474.42 605.21 474.42 605.21 474.42 547.82 524.12 519.13"/>
      <polygon class="cls-1" points="424.72 519.13 424.72 519.13 424.72 576.52 474.42 605.21 474.42 547.82 424.72 519.13"/>
      <polygon class="cls-1" points="524.12 519.13 524.12 519.13 524.12 576.52 736.48 453.91 686.78 425.22 524.12 519.13"/>
      <polygon class="cls-1" points="524.12 576.52 524.12 519.13 524.12 519.13 474.42 547.82 474.42 605.21 474.42 605.21 524.12 576.52"/>
      <polygon class="cls-1" points="262.06 367.82 262.06 425.21 424.72 519.13 474.42 490.43 262.06 367.82"/>
      <polygon class="cls-2" points="474.42 490.43 524.12 519.13 686.78 425.21 686.78 367.82 686.78 367.82 474.42 490.43"/>
      <polygon class="cls-1" points="524.12 519.13 474.42 490.43 424.72 519.13 474.42 547.82 524.12 519.13"/>
    </g>
  </g>
</svg>