<?xml version="1.0" encoding="UTF-8"?>
<svg id="Layer_1" data-name="Layer 1" xmlns="http://www.w3.org/2000/svg" viewBox="0 0 499.13 396.38">
  <defs>
    <style>
      .cls-1 {
        fill: #066ab5;
      }

      .cls-1, .cls-2, .cls-3 {
        fill-rule: evenodd;
      }

      .cls-2 {
        fill: #0b7fc3;
      }

      .cls-3 {
        fill: #010101;
      }
    </style>
  </defs>
  <g>
    <path class="cls-2" d="M272.31,174.17c-.57-.88-1.65-1.29-2.47-1.86,.36,.82,.41,1.08,.05,1.91-.31,.62-.46,1.29-.77,1.91-.21,.41-.52,.88-.62,1.29-.15,.52-.05,1.03-.26,1.55,2.27-.62,4.28-2.06,6.19-3.35-.36-.05-1.29-.05-1.6-.31-.26-.15-.31-.82-.52-1.13m54.34-7.63q.98,.77,1.03,2.11c-.82-.52-1.13-1.13-1.03-2.11m-47.74,3.51c-.46,.05-.57-1.29-.67-1.65l.46-.05c.21,.21,1.03,1.65,.21,1.7m68.47,13.46c.62-3.56,1.44-7.11,2.47-10.62,.52-1.7,1.08-3.4,1.7-5.05,.52-1.44,1.55-2.99,1.75-4.54-1.65,1.5-2.94,3.3-4.38,5-1.34,1.6-2.73,3.2-4.02,4.85-.52,.67-.98,1.44-1.03,2.32-.05,.98,.52,1.55,.93,2.37s.67,1.91,.88,2.78c.21,.98-.1,1.5-.46,2.37-.72-.36-1.34-.57-1.91-1.24-.57-.67-1.03-1.5-1.6-2.22-1.19-1.55-2.37-3.14-3.51-4.69-2.32-3.14-4.38-6.34-6.14-9.85-1.75-3.56-3.35-7.22-5.1-10.78-.36-.77-.52-1.6-1.5-1.6-.72,0-1.34,.46-2.01,.62-.15,.05-.36,.1-.52,.1,0,.15,0,.36-.1,.52-.15,.21-.26,.1-.46,.1-.31,0-.52-.21-.82-.15-.41,.05-.88,.31-1.24,.46v-.98c-1.29,.67-4.43,2.89-5.1,.36-.05,.46,.05,1.29-.41,1.6-.31,.21-.67,0-.98,.05-.41,.05-.77,.36-1.13,.46,0-.67-.57-.62-1.03-.67-.67-.1-1.24-.46-1.91-.36-.67,.1-1.13,.41-1.8,.05-.46-.26-.88-.57-1.34-.82-.46-.26-.57-.46-.72-.88-.21-.52-.15-.41-.72-.26-1.13,.31-1.55-1.03-1.75-1.96-.46-2.22,.05-4.64,1.55-6.39,1.91-2.22,3.87-4.43,6.34-6.03,2.27-1.5,4.69-3.35,7.37-4.07-2.11-4.74-5.16-9.18-7.84-13.66-.77,.15-1.24,.62-2.06,.46-.67-.1-.62-.05-.88,.62-.21,.62-.31,.67-.93,.88s-.1-.21-.57,.31c-.21,.21-.31,.46-.57,.62-.93,.62-2.11,.26-3.09,.67-.67,.26-.36,.62-.67,1.08-.36,.52-.98,.26-1.5,.15-1.08-.15-1.39,.21-1.6,1.19-.15,.72-.26,1.13-1.08,1.29-.46,.1-1.13-.26-1.44,0-.1,.1-.05,.41-.1,.57-.1,.26-.26,.46-.46,.67-.36,.41-.88,.77-1.39,.98s-1.03,.1-1.5,.26c-.72,.26-.57,1.08-.52,1.7-.41-.1-.52-.1-.77-.41-.1-.15-.05-.36-.26-.46-.21-.05-1.24,.57-1.39,.77-.41,.52,0,1.29-.1,1.91-.1,.62-.62,1.08-1.03,1.55-.15-.36-.26-.77-.41-1.13-.21,.26-.46,.41-.57,.72-.05,.15,.1,.36,0,.57-.21,.46-.41,.15-.82,.21-.36,0-1.29,.26-1.08,.82,.1,.36,.82,.26,.72,.77-.1,.62-.88,.21-1.19,.31-.41,.15-.26,.52-.41,.88-.26,.62-.72,.67-1.29,.98-.52,.31-.72,.67-.93,1.19-.31,.67-.26,.46-.88,.41-.41-.05-.57,.05-.72,.41-.1,.31,.1,.67,0,.93-.15,.31-.82,.72-1.08,1.03-.67,.93-.93,2.06-1.5,3.04-.26,.41-.52,.88-.82,1.24-.41,.52-.67,.41-1.19,.72-.88,.46-.62,1.7-.72,2.47-.05,.41-.15,.82-.46,1.13-.15,.21-.82,.41-.67,.77,.15,.46,.67-.05,.57,.67-.05,.57-.72,1.03-.88,1.6-.1,.41,.05,.77-.05,1.13-.1,.41-.46,.77-.62,1.13-.15,.41,.1,.93-.05,1.24-.15,.36-.77,.26-.93,.72-.15,.52,.26,1.29,.31,1.8,.05,.31,.21,.67-.05,.98-.26,.26-.82,.21-.57,.77,.1,.26,.52,.21,.57,.62,.05,.31-.31,.77-.52,.98-.52,.57-1.5,1.03-.77,1.75,.1,.1,.26,.05,.36,.21,.15,.21,.15,.52,.21,.77,.21,.52,.46,1.03,.77,1.5,1.24,1.75,3.3,2.58,4.64,4.12,1.65-1.65,3.35-3.25,4.9-5,1.34-1.5,2.63-2.99,4.12-4.33,.77-.67,1.7-1.19,2.32-2.01,.62-.77,.88-1.75,1.34-2.63,.93-1.7,2.27-3.09,3.25-4.74,1.96,1.29,1.13,4.54,.57,6.34-.36,1.13-.82,2.17-1.39,3.2-.46,.88-1.19,1.7-1.39,2.68-.21,.77,.1,1.44,.57,2.11,.67,.93,1.44,1.8,2.11,2.68l5.05,6.6c.62-.88,1.6-.31,2.42-.15,1.19,.26,2.42,.15,3.61,.26,1.29,.1,2.53,.31,3.82,.52,1.13,.21,.36,.72,.93,1.34,1.13-2.06,3.35-.77,5.16-.57,1.13,.1,2.32,.05,3.4,.21,1.13,.15,2.22,.52,3.35,.62,2.17,.21,4.12,.98,6.29,1.34,1.13,.21,2.27,.36,3.4,.57,.41,.05,1.08,.1,1.34,.52,.26,.46-.26,1.5-.41,1.96-.21,.67-.36,1.65-.82,2.22-.36,.41-.41,.15-.88,.15-.52,0-.31,.1-.67,.46-.41,.46-1.03,.52-1.65,.57-.26,0-.82,0-1.03,.15-.31,.26-.05,.31-.05,.72-.05,.72-1.03,1.24-1.6,1.55-.36,.21-.77,.31-1.19,.31-.26,0-.57-.26-.82-.15-.36,.15-.36,.88-.57,1.19-.41,.57-.93,.15-1.5,.41-.62,.36-.98,1.13-1.6,1.55-1.19,.77-2.58,.88-3.14-.62-.26,.52-.82,1.24-.57,1.75,.21,.46,.77,.77,1.19,.98,1.19,.62,2.32,1.29,3.45,2.01,2.58,1.65,5.05,3.45,7.78,4.85,2.73,1.34,5.57,2.78,8.56,3.4,3.09,.62,6.19,.21,9.07-1.03-.41-.82-.52-1.39-.52-2.37,0-.93-.05-1.86-.05-2.73,0-1.8,0-3.66,.05-5.46,.26-3.61,.62-7.27,1.29-10.88m32.43-2.63c-.26-.98-.57-2.01-.67-3.04-.05-.72,.21-1.86-.21-2.47-.21-.26-.52-.36-.62-.72-.1-.26,.05-.77,0-1.08-.1-.77-.41-1.44-.67-2.17-.62-1.6-.67-3.25-1.19-4.9-.31-.88-.82-1.65-1.13-2.53-.31-.77-.41-1.65-.52-2.47-.1-.88-.1-1.75-.31-2.63-.21-.82-.46-1.6-.62-2.42-.41-1.96-.93-3.87-1.6-5.77-.26-.72-.46-1.91-1.08-2.37-.46-.36-1.08-.26-1.6-.21-.62,.05-1.08,.05-1.5,.57-.52,.67-.82,1.34-1.44,1.96-.62,.62-1.39,1.13-1.91,1.8-.41,.52-.21,.72,.26,1.13-.62,.05-1.08-.1-1.55,.36-.46,.46-.77,1.24-1.08,1.8-.62,1.29-.72,2.42-.88,3.82l-.52-.77c-.21,.57-.52,1.19-1.13,1.44-.77,.31-.72,.21-.72,1.03,0,1.24-1.03,1.96-1.65,2.89-.36,.52-.72,1.08-.93,1.7-.31,.72-.1,1.24-.05,2.01,.1,1.13-.98,2.01-1.65,2.84-.21,.26-.31,.36-.41,.67-.1,.21,.05,.36-.15,.62-.31,.46-.98,.31-1.19,.88-.26,.52,.1,1.03,.15,1.5,.1,.77-.41,1.55-.67,2.27-.31,.77-.52,1.6-.62,2.42-.05,.46-.1,.98-.05,1.44,0,.21,.15,.77,.05,.98-.21,.26-.62-.05-.77,.26-.36,.62,.98,.77,1.24,.88-.31,.21-.72,.31-.98,.62-.31,.36-.1,.57-.26,.98-.15,.46-.67,.57-.88,.98-.15,.41,.15,.52,.36,.82,.41,.82,.05,2.06-.1,2.89-.05,.36-.05,1.24-.26,1.5-.15,.15-.41,.1-.57,.26-.26,.31,0,.41,.1,.77,.1,.46,.1,.93,0,1.34-.1,.41-.41,.82-.46,1.24-.1,.46,.15,.62,.31,1.08,.36,.98,.1,2.17,0,3.14-.15,1.13,.26,2.22-.05,3.3l-.98-.41c.1,.52,.21,1.03,.31,1.55l.15,.77c-.05,.31,.05,.46,.31,.41,.57,.15,1.39-.72,1.86-.98,1.39-.77,2.84-1.34,4.28-2.01,1.5-.67,2.73-1.65,4.07-2.53,1.39-.93,2.84-1.7,4.23-2.63,5.88-4.18,12.22-7.68,18.35-11.45-1.75,.15-2.06-2.11-2.42-3.35m7.27-47.33c.93,.26,.72,1.03,.36,1.7-.36-.31-.98-.72-1.13-1.19-.21-.62,.26-.67,.77-.52m25.67,22.99c-.05,.26-.1,1.19-.26,1.34-.15,.15-1.03-.05-1.24-.05-.72-.05-1.24,.1-1.91,.26-1.13,.31-1.34-.41-1.39-1.5-.88,1.75-2.37,2.63-4.23,2.99-.82,.15-1.75,.31-2.58,.36-.62,.05-1.34-.05-2.01-.15-.41-.05-.77-.31-1.13-.41-.82-.15-.1,.46-.67,.62-.15,.05-.72-.21-.98-.21-.36,0-.72,.05-1.08,0-.82-.05-1.08-.52-1.75-.88-.36-.21-.57-.15-.93-.1-.41,.05-.1,.21-.57,.1-.15-.05-.41-.21-.57-.26-.88-.41-1.6-.77-2.27-1.44-.52-.52-1.13-.88-1.65-1.34-.21-.21-.26-.41-.46-.62-.21-.26-.21-.21-.46-.36-.31-.21-.52-.31-.72-.67-.31-.57-.31-1.34-.36-1.96-.15-2.11,.21-4.02,1.24-5.88,1.08-2.01,2.01-4.18,3.3-6.08,1.13-1.75,2.63-3.35,4.02-4.9,.41-.41,.82-.93,1.34-1.29,.31-.21,.72-.31,1.03-.57,.72-.57,.36-1.6,.36-2.42,.21,.41,.57,.98,1.13,.88,.36-.1,.36-.46,.62-.62,.21-.1,.41-.05,.67-.1-.88-4.23-1.96-8.51-3.35-12.58-3.82,3.71-7.58,7.48-11.29,11.29-1.91,1.96-3.66,4.07-5.57,6.08-2.01,2.06-4.02,4.12-6.03,6.19,.57,.52,1.19,.88,1.55,1.55,.36,.62,.72,1.08,1.19,1.65,1.08,1.19,1.6,2.99,2.22,4.49,.15,.31,.15,.36,.15,.62,0,.15-.21,.31-.21,.52,0,.26,.1,.41,.26,.57,.15,.15,.52,.36,.57,.62s-.26,.46-.31,.72c-.41,1.13,.93,1.91,1.39,2.78,.26,.46,.36,.98,.05,1.44-.26,.41-.82,.57-.52,1.13,.21,.36,.72,.15,.67,.67-.05,.26-.57,.52-.1,.82,.41,.26,.88-.21,.72,.57-.1,.36-.57,.67-.41,1.08,.1,.36,.77,.41,1.08,.72,.31,.36,.46,.98,.57,1.44,.21,1.65,.62,3.09,.98,4.69,.26,1.08-.41,1.08-1.34,1.08,.62,.88,1.29,1.8,1.96,2.68,.67,.82,.82,2.17,1.13,3.2,.36,1.24,.77,2.47,1.13,3.71,.15,.57,.26,1.13,.05,1.7q-.26,.67-.15,1.34c2.99-1.7,5.77-3.61,8.61-5.57,1.34-.93,2.73-1.86,4.02-2.84,1.03-.77,2.11-1.55,2.78-2.68,1.55-2.63,3.87-4.64,5.98-6.86,1.08-1.13,2.06-2.53,3.35-3.35s2.63-1.55,3.87-2.37l-1.49-1.86"/>
    <path class="cls-1" d="M318.6,191.54c1.19-.57,2.32-1.34,3.51-2.01,1.03-.57,1.96-.82,2.84-1.6,.36-.31,.72-.46,1.13-.67,.57-.26,.98-.77,1.44-1.13-1.24-.46-2.47-1.24-3.82-1.24-.62,0-1.19,.21-1.8,.1-.62-.1-1.08-.41-1.6-.77-.88-.67-1.29-.57-2.27,0-.21,.15-.57,.41-.82,.41-.46,0-.41-.31-.57-.62-.15-.26,.05-.31-.26-.31-.21,0-.31,.26-.52,.31-.41,.1-1.19-.31-1.65-.41-.72-.1-1.24,0-1.96,.05-.72,.05-1.44-.1-2.11-.36-.62-.21-1.24-.52-1.86-.72-.82-.26-.98,.05-1.75,.26-1.13,.26-2.27-1.39-3.3-.52,1.55,2.27,3.66,4.12,5.62,6.03,1.03,1.03,2.11,2.01,3.25,2.94,.52,.41,1.03,.82,1.6,1.24,.26,.21,.46,.36,.72,.57,.41,.31,.41,.41,.77,.26,.57-.26,.98-.77,1.55-1.03,.67-.26,1.24-.46,1.86-.77m.77-49.18c.05,1.03,.67,1.86-.21,2.68,0-.52-.05-.98-.1-1.5-.05-.52-.31-1.08,.31-1.19m-1.03-4.38c-.15,.46-.36,.77-.77,.98-.62,.31-1.44-.21-1.86,.26s-.36,1.55-.93,1.91c-.15,.1-.36,.05-.57,.21-.15,.15-.21,.46-.36,.57-.31,.21-.57,0-.82,.1-.31,.15-.36,.52-.46,.82s-.1,.72-.31,.93c-.26,.31-.93,.52-1.24,.72-1.24,.77-2.42,1.5-3.66,2.27,.36,.36,1.13,.77,1.24,1.34,.05,.36-.21,.41,.1,.72,.15,.15,.62,.26,.77,.36,.67,.36,1.39,.67,2.17,.82,.88,.21,1.8,.1,2.68,.31,.93,.21,1.86,.41,2.84,.36,.82,0,1.6-.26,2.42-.31,1.55-.15,3.51,0,4.79-1.08-.1-1.13-.26-1.96-.67-2.99-.36-.98-.77-1.96-1.13-2.89-.77-1.96-1.6-3.82-2.63-5.67-.21,1.29-.72-.41-1.19-.41-.31-.05-.31,.41-.41,.67m84.96,14.02c.67,.15,1.24,.26,1.86,.57,.46,.21,.67,.31,1.03-.05,.21-.21,.26-.52,.57-.62,.26-.15,.67-.1,.98-.1,.77-.05,1.55-.05,2.27-.1-.88-.82-1.75-1.7-2.63-2.53-.15,.26-.52,1.08-.77,1.13-.1,0-.31-.26-.46-.26s-.26,.05-.36,.1c-.31,.15-.46,.46-.82,.57-.36,.1-.77-.05-1.13-.1-.1,.31-.36,.93-.52,1.39m-1.08-10.93c.15-.62-.15-1.29-.05-1.91l-.21-.31c-.15,.36-.26,.77-.52,1.08-.21,.31-.52,.52-.62,.88-.26,.62,.05,1.08,.36,1.65,.36-.52,.88-.82,1.03-1.39m-5.21,1.34c-.52,0-.31,.26-.41,.67-.05,.26-.15,.46-.31,.67-.26,.41-.93,.82-.57,1.44,.31,.46,.36-.1,.62,.1,.26,.26-1.55,2.11-1.86,2.22-.15,.05-.31-.1-.46,0-.1,.1,.05,1.19,.05,1.39,0,.57-.05,1.19,.41,1.6,.57,.46,1.44,.52,2.11,.77,.46,.21,.88,.46,1.34,.57,.52,.15,.93-.15,1.34-.1,.31,.05,.93,.57,1.29,.72,.41,.21,.52,.26,.93,.1,.26-.1,.67-.26,.82-.46,.26-.31,.05-.31,.1-.72,.05-.77,.88-.67,1.39-.88-1.08-.31-1.65-1.5-2.22-2.42-.26-.41-.72-.93-.82-1.39-.15-.57,.26-.98,.52-1.44-.36,.15-1.75,.77-1.08,.05,.21-.26,1.5-.62,.98-1.24-.31-.36-.72,.41-1.08,.31-.41-.1-.93-.82-1.29-1.03-.41-.26-1.29-.93-1.8-.93m-129.4,21.65c0-1.8,.31-3.61,.82-5.31,1.08-3.56,3.35-6.65,4.07-10.31,.36-1.75,.26-3.56,.57-5.31,.36-1.86,.36-3.76,.41-5.67,.05-1.86,.15-3.71,.1-5.57,0-.67-.21-1.6-.05-2.22,.15-.57,.36-.36,.82-.52-.31-.21-.98-.31-1.03-.72-.05-.26,.21-.57,.21-.88,0-.26-.15-.52-.21-.72-.41-1.29-.98-3.3-.26-4.54-.46-.05-.62-.21-1.03,0-.46,.21-.88,.67-1.29,.98-.77,.62-1.55,1.24-2.22,1.91-1.29,1.34-2.37,2.84-3.51,4.28s-2.32,2.89-3.45,4.33c-.93,1.13-2.32,2.78-3.61,1.29-.36,.52-.62,1.03-1.24,1.24-.77,.31-1.08,.62-1.6,1.24-.1,.1-.41,.67-.57,.72-.31,.1-.1-.1-.36-.26-.36-.21-.52-.36-.67,.26-.05,.26,.1,.52-.05,.82-.1,.26-.52,.52-.77,.67-.57,.31-1.19,.31-1.75,.52-.98,.31-1.6,1.8-2.68,1.08-.41-.26-.72-.67-1.19-.41-.36,.21-.46,.72-.98,.52-.31-.1-.52-.46-.88-.62-.26-.1-.46-.1-.72-.15-.57-.05-1.08-.05-1.65-.21-1.13-.36-1.96-1.39-2.73-2.27-.57-.62-.41-1.03-.26-1.86,.15-.72,.26-1.39,.46-2.06,.36-1.34,.77-2.73,1.44-3.97,.77-1.44,1.86-2.68,2.89-3.97,2.11-2.63,4.12-5.46,6.44-7.94,.41-.46,1.19-.98,1.08-1.7-.1-.77-.98-.41-1.55-.26-1.44,.36-2.84,1.08-4.23,1.6-.77,.31-1.8,.88-2.63,.52-.77-.36-2.01-1.34-1.6-2.27,.31-.67,.72-1.19,.88-1.96,.15-.72,.26-1.39,.41-2.11,.36-1.65,.77-3.3,1.29-4.95,.93-3.09,2.11-6.14,3.14-9.23-4.28,.36-8.2,1.65-12.17,3.04,.21,.41,.57,.93,.41,1.39-.15,.57-.93,.36-1.13,.77-.21,.46,.46,.72,.26,1.29-.15,.52-.67,1.08-.93,1.5,1.29,.82,.82-.93,1.7-1.03,.26,1.39-.31,2.06-.88,3.25-.46,1.03,.62,.93,.88,1.75-.62,.1-1.08-.21-1.34,.57-.1,.31,.05,1.5-.31,1.55-.26,0-.21-.52-.41-.52-.31-.05-1.03,.98-1.19,1.19,.77,0,1.19,.1,1.96,.36-.46,.46-.98,.93-1.44,1.39,.46,.21,1.24,.21,1.44,.72,.21,.46-.1,1.34-.15,1.8,.21-.31,.46-.98,.77-1.19,.41-.26,.52,0,.46,.52-.05,.98-1.34,.93-1.55,1.7s.93,.26,.98,1.03c0,.46-.52,.82-.26,1.29-.57-.31-.67-.52-.98-1.13-.21,.77-.67,2.06-.41,2.89,.21,.67,.67,.52,.15,1.19-.21,.26-.46,.41-.46,.77,0,.77,1.08,1.34,.21,2.01-.31,.26-.67,.31-.82,.77-.15,.41,0,.93-.1,1.34-.26,.88-.88,1.5-1.5,2.06-.57,.52-1.08,1.13-1.65,1.6-.31,.26-.46,.41-.67,.72-.1,.15,0,.26-.1,.41-.15,.15-.52,.15-.72,.15-.67,.1-1.44,.41-1.7,1.13-.82-.62-1.65,.15-2.42,.36-.41,.1-.72,.15-1.13-.05-.57-.31-.57-.36-1.29-.26-1.96,.26-3.56-1.75-4.69-3.14-.77-.98-1.24-2.27-1.44-3.51-.26-1.44-.52-2.94-.62-4.43-.26-3.09-.15-6.19-.05-9.28-3.61,1.91-7.01,4.38-10.26,6.91-3.25,2.47-5.98,5.57-8.92,8.46,.72,.05,1.44,.31,2.22,.31,.36,0,.72-.05,1.08-.21,.21-.1,.36-.21,.52-.31,.15-.26,.31-.31,.57-.15,.72-.05,1.39-.21,2.11-.31,.93-.15,1.91,.15,2.84,.31,1.7,.31,3.51,.1,5.16,.62,1.44,.46,2.94,1.13,4.33,1.7,1.34,.57,2.47,1.86,3.61,2.73,.67,.52,1.34,.72,2.06,1.19,.67,.41,1.19,1.29,1.65,1.91,1.13,1.44,2.37,2.84,3.51,4.28,.52,.67,.98,1.34,1.24,2.11,.15,.41,.15,.82,.31,1.24,.1,.36,.36,.57,.57,.82,.67-1.86,1.34-3.76,2.06-5.62,.26-.72,1.5-4.12,2.47-2.84,.82,1.13,.36,3.45,.1,4.69-.36,1.7-.72,3.35-1.13,5.05-.77,3.35-1.44,6.7-2.37,10-.05,.21-.21,.46-.21,.67-.05,.36-.15,.15,.1,.41,.15,.15,.46,.1,.57,.26,.26,.31,.15,1.34,.15,1.7-.05,.67-.41,.98-.62,1.6-.15,.52,.1,1.08,.1,1.6,0,1.34-.67,2.78-.93,4.12-.15,.82,.31,2.17-.82,2.32,.31,.52-.05,.72-.31,1.08-.31,.46-.36,.93-.57,1.44-.15,.46-.46,.77-.52,1.24-.05,.41,.15,.82,0,1.24-.15,.52-.46,.57-.93,.77-.41,.21-.31-.05-.41,.36-.05,.15,0,.57,0,.82-.21,.98-.98,1.65-1.6,2.32-.26,.26-.57,.88-.88,1.03-.41,.21-1.08-.15-1.5,.05-.36,.21-.77,1.75-.88,2.17-.31,.82-.57,1.65-.82,2.42-.98,2.99-2.01,5.98-2.99,8.97,.46,0,1.29-.52,1.7-.31,.52,.26,.21,.98,.36,1.34,.15,.26,.98,.26,1.34,.26,.62,.05,.93-.15,1.5-.31,.98-.31,2.27-.21,3.3-.31,2.32-.26,4.69-.31,6.96-.82,2.17-.46,4.23-1.29,6.39-1.91-.98-.52-1.19-1.8-1.44-2.78-.15-.57-.21-.98-.52-1.44-.36-.57-.67-1.13-.88-1.8-.88-2.47-.93-5.52-.62-8.09,.62-5.26,2.47-10.21,5.36-14.59,1.39-2.11,2.99-4.07,4.74-5.88,1.8-1.86,3.66-3.87,5.77-5.31,.98-.67,2.06-.93,2.94-1.7,.62-.62,1.65-.72,2.47-1.19,1.08-.62,2.06-1.08,3.3-1.34,.93-.21,1.96-.67,2.89-.52,.67,.1,.41,.36,.77,.67,.52,.41,.31-.15,.67-.31,.31-.1,.52,.21,.77,.26,.1,.05,.67,.05,.62,0,.31,.15,.26,.77,.41,1.08s.46,.52,.57,.88c.15,.46,.05,.82-.15,1.24-.21,.46-.57,.67,0,1.08-1.34,.88-.52,2.63-1.5,3.71-.36,.36-1.13,.88-1.08,1.44,0,.62,1.08,.82,.57,1.44-.52,.57-1.6,.31-2.22,.77-.62,.52-.41,1.34-.46,2.01-.05,.52-.57,1.13-.36,1.65,.15,.31,.36,.26,.41,.62,0,.31-.26,.67-.31,.98l-.67-.31c-.1,.41-.31,.77-.36,1.19-.05,.46,.15,.72,.26,1.13,.1,.41-.15,1.19-.15,1.7-.05,.57-.1,1.19-.52,1.65-.26,.26-.57,.31-.82,.52s-.31,.46-.52,.72c.36-.1,.77-.21,1.13-.36-.15,.72-.41,1.03-.93,1.6l-.26-1.29c-.15,.46-.41,.77-.36,1.29,0,.41,.21,.82,.21,1.24,0,.82-.62,1.34-.36,2.17,.31,.98,.36,1.44,.05,2.42-.26,.88-.62,1.7-.67,2.63-.05,1.03,.41,1.91,.31,2.94-.05,.46-.26,.82,.31,.88,.46,.05,.98-.36,1.39-.57,2.06-.98,4.07-1.96,6.08-2.94-.36-.52-.31-.57-.05-1.19l.52-1.44c.36-1.03,.77-2.06,1.13-3.09,.72-1.91,1.7-3.82,2.06-5.88,.36-1.6,.21-3.45,.26-5.31m-124.51,148.27l-2.01-1.29,1.19-.88c.41-.31,.62-.62,.88,0,.26,.67-.05,1.5-.05,2.17m-.88-4.9c.93,1.08-.82,1.44-1.5,1.55,.1-.52,.52-2.68,1.5-1.55m20.78-3.87c-.31-.93-.82-3.56-2.22-3.4-.36,.05-.67,.36-1.03,.41-.36,0-.67-.05-1.03-.1-.72-.05-1.55,0-2.27,.21-.82,.26-1.44,.67-2.37,.72-.67,.05-1.34,0-1.96,.15-1.08,.31-1.03,1.29-.88,2.22-.21-.21-.41-.36-.52-.62-.15-.26-.15-.57-.36-.82-.46-.46-.98-.26-1.55-.21-.62,.05-1.5-.36-2.11-.15-.26,.1-.41,.41-.72,.57-.26,.1-.52,.15-.82,.15-.62,.05-1.24,.26-1.8,.26-.77,0-1.44-.05-2.22,.15-.72,.21-1.39,.52-2.11,.67-.82,.21-1.65,.26-2.42,.41-1.6,.31-3.2,1.03-4.9,1.13-.88,.05-1.7,.05-2.58,.21-.26,.05-.88,.05-1.08,.15-.26,.15-.41,.88-.57,1.13-1.5,3.09-2.58,6.34-3.76,9.54-1.24,3.3-2.47,6.65-3.71,9.95-.57,1.55-1.34,3.09-1.8,4.69-.46,1.5,1.29,2.53,2.22,3.45,2.27,2.27,4.54,4.49,7.11,6.44s5.52,3.25,8.46,4.54c3.04,1.34,6.19,2.11,9.43,2.58,1.7,.26,3.35,.41,5.05,.52,1.7,.15,3.14-.1,4.79-.31-.15-.36-.72-1.08-.62-1.5,0-.1,.26-.31,.31-.46,.1-.21,.05-.41,.05-.62,0-.98-.36-1.91,.88-2.27l.1,1.6c.62-.93,.21-1.86-.15-2.78l-1.29,1.08c.1-.26,.77-1.91,.62-2.06-.21-.15-.57,.26-.77,.05-.15-.15,0-.52-.05-.72-.1-.31-.46-.57-.46-.93,0-.46,.62-.88,.93-1.19,.41-.46,.62-.77,.62-1.39,0-.88,.41-.82,1.03-1.39,1.03-.93,1.08-2.22,.57-3.4l1.34-.1c-.41-1.03-.82-2.06-1.24-3.14-.41-1.03,.15-1.6,.41-2.53,.62,.62,1.24,1.24,1.86,1.8,.15-1.96,.67-3.92,.46-5.93-.05-.62-.21-.57,.1-1.03,.21-.31,.46-.57,.67-.93,.36-.72,.46-1.5,.52-2.27,.05-.72,.05-1.5,.26-2.22,.15-.52,.67-.82,.77-1.39,.21-1.03-1.39-2.78-.46-3.51,.46-.36,1.08,0,1.44-.62,.31-.52,.41-1.29,.57-1.86,.26-.93,.41-1.65,.05-2.58-.21-.77-.52-1.55-.77-2.37m14.85-47.33c-.26-.52-.62-.62-1.19-.72-2.42-.46-4.85-.46-7.27-.67-.67-.05-1.39-.15-2.06-.31-.57-.15-1.08-.46-1.65-.57-1.08-.26-2.22,.46-3.3,.41-.57-.05-1.03-.36-1.6-.52-.46-.1-.82,0-1.29,0-.88,.05-1.75,0-2.63-.1-1.08-.1-2.11-.31-3.14-.57-.67-.21-1.7-.36-2.22-.93-1.13,1.75-2.11,3.61-2.94,5.57-.82,1.91-1.91,3.66-2.89,5.46-2.01,3.66-3.45,7.58-4.85,11.55,.77-.36,1.29-.72,1.86,.1,.52,.72,1.19,.52,2.01,.62,1.39,.21,1.55,1.75,1.86,2.89,.46-.57,.88-1.13,1.34-1.65,.36,.41,.93,.62,1.24,1.08,.21,.31,.1,.57,.21,.82,.1,.26,.36,.36,.57,.57,1.39-1.75,2.68,1.55,2.84,2.68l.52-1.29c.26,.26,.57,.52,.77,.77,.1,.21,.1,.52,.26,.67,.21,.26,.31,.15,.57,.21,.41,.1,.36,.1,.62,.41,.77,1.03,1.91,1.8,2.53,2.89,.82,1.39,1.91,2.78,2.37,4.33,.26,.88,.41,1.7,.88,2.53,.26,.41,.67,.77,.88,1.19,.26,.52-.21,.72-.15,1.19,.05,.46,.82,.93,1.24,1.08,.62,.21,1.34,.15,1.96,.15,.82,0,1.8,0,2.58-.26,.72-.21,.62-.57,.82-1.19,.21-.72,.62-1.44,.93-2.11,.46-1.03,.72-1.7-.72-2.01,.82-.15,2.11-.36,1.86-1.44-.1-.52-.57-.88-.52-1.44s.52-.77,.98-1.08c.82-.57,1.39-1.65,1.7-2.58,.15-.52,.21-.93,.05-1.44-.26-.82-.41-1.5-.46-2.37l1.13,.1c-.1-.31-.1-.57-.26-.88-.05-.1-.31-.15-.31-.31,0-.26,.36-.26,.52-.41,.36-.41,.46-1.44,.62-1.96,.15-.52,.21-1.13,.52-1.55,.52-.82,1.13,.36,1.03-.82-.05-.62-.1-1.5-.88-1.6-.88-.1-1.13,.26-1.08-.82,.05-.77-.15-2.37,.67-2.78,.41-.21,1.03-.15,1.44-.21,.52-.05,.93,.21,1.39,.21,.77-.05,.77-1.19,.82-1.75,.41-2.58,.62-5.21,.36-7.78-.05-1.13-.1-2.42-.52-3.35"/>
    <path class="cls-2" d="M198.63,154.58q-.05-1.86,.98-2.58c.31,1.19-.36,1.75-.98,2.58m18.97,4.79c.21-.46,1.13-.31,1.55-.31-.21,.36-.82,1.29-1.03,2.01-.21-.41-.72-1.29-.52-1.7m-2.42,13.3c.41-.31,.31-.31,.52-.72,.15-.31,.1-.46,.41-.67,.67-.41,.77-.41,.93-1.29,.15-.77,.1-1.8,.41-2.53,.26-.52,1.03-.57,1.03-1.19,0-1.24-2.17-1.86-1.75-3.09,.1-.36,.52-.46,.67-.77,.1-.21,.05-.46,.05-.67,.05-.46,.21-.57,.62-.67-.05,.21-.05,.41,0,.52,.26,.52,1.39-.1,1.65-.46,.52-.77,.05-2.06-.15-2.84-.26-1.08-.21-1.91-.1-2.99l1.44,1.55c.26-.77,.31-1.19,1.03-1.7,.67-.46,.93-.77,1.34-1.44,.15-.26,.26-.52,.62-.62,.31-.1,.82,.26,1.08,.1,.15-.1,.36-.93,.41-1.08,.15-.46,.36-.98,.52-1.44-1.03-2.58-1.86-5.26-3.35-7.58-1.39-2.11-3.4-3.87-5.41-5.36-1.03-.77-2.01-1.55-3.09-2.22s-2.22-.93-3.35-1.44-2.47-1.03-3.71-1.13c-.62-.05-1.29,.1-1.91,.05-.72-.1-1.39-.31-2.11-.46,0,3.71-1.34,7.48-2.63,10.88-.57,1.55-1.39,2.99-2.01,4.59-.62,1.55-1.19,3.14-1.86,4.69-1.34,3.2-2.58,6.5-4.33,9.49-.15,.26-.31,.46-.26,.67,.05,.05,.26,.21,.31,.26,.15,.21,.31,.41,.46,.62,.31,.52,.41,1.13,.62,1.65,.46,1.29,1.34,2.53,2.01,3.71,.77,1.34,1.8,2.53,2.94,3.61,.52,.52,1.34,.98,1.65,1.65,.26,.52,.26,1.13,.41,1.7l.21-1.29c.46,.98,1.65,1.08,2.53,1.55,1.08,.62,2.06,1.39,3.2,1.91,1.19,.52,2.42,.93,3.66,1.13,.62,.1,1.29,.15,1.96,.15,.67-.05,1.13-.36,1.7-.57-1.86-1.6-1.19-4.38-.1-6.24l.98,2.17c.21-.52,.93-.98,.62-1.6-.21-.36-.46-.26-.52-.67-.05-.31,.15-.77,.31-1.03,.26,.36,.31,.72,.36,1.13m-5.46,12.01c-.41-.93-2.17-1.13-2.99-1.34-1.44-.31-2.78-1.13-4.07-1.8-1.24-.67-2.27-1.24-3.25-2.22-.46-.46-.88-.57-1.44-.82-.57-.26-.93-.62-1.34-1.08-.82-.93-1.91-1.65-2.58-2.73-.62-1.08-1.55-1.8-2.32-2.78-.93-1.19-1.6-2.53-2.37-3.76-1.44,1.55-1.8,3.97-2.68,5.83-1.08,2.32-2.11,4.69-3.14,7.06-1.8,4.23-3.61,8.51-5.21,12.89-.05,.15-.36,.67-.31,.88,.05,.15,.46,.36,.57,.46,.36,.36,.57,.77,.82,1.19,.52,.72,1.08,1.44,1.65,2.11,1.39,1.5,2.99,2.84,4.74,3.87,.77,.41,1.86,1.29,2.73,1.24,1.13-.1,1.96-.15,3.09,.1,1.08,.26,2.06,.46,3.2,.41,.46,0,.93-.05,1.34,.1,.31,.1,.52,.46,.88,.46,.41,0,.67-.36,1.08-.52,.36-.1,.72-.15,1.08-.1,.52,0,1.8,.52,2.22,.1,.46-.46,.31-1.75,1.13-1.91,.62-.1,1.96,1.03,2.47,1.39-.21-.67-1.03-2.01-.57-2.73,.21-.31,.46-.36,.82-.31,.41,.1,.46,.41,.82,.57,1.86,1.03,1.7-3.87,1.6-4.64l-1.39-.1c0,.41,.15,1.39-.15,1.6-.26,.15-1.08,0-1.39,0,.62,.62,.93,1.13,0,1.65-.67,.36-1.5-.05-1.55-.82-.05-.82,1.24-.98,1.03-1.8-.31-1.13-1.29,.77-1.5,1.13-.26-.98-.1-1.86,.57-2.63,.77-.93,1.65-.98,2.73-.67,.1-.46,.36-.77,.46-1.19,.15-.52-.1-.36-.31-.82-.36-.72,.36-.98,.52-1.55,.1-.36-.05-.67-.26-.98-.21-.36-.57-.57,0-.77,.41-.15,.93,.26,1.34-.1,.41-.41,.26-1.24,.52-1.7,.36-.72,.72-.26,1.29-.05,.41,.15,.57,.15,.62-.31,0-.26,0-.46-.21-.62-.31-.26-.72-.1-1.03-.15-.46-.1-.46-.41-.67-.82,.77-.05,.82,.21,1.55,.46,.57,.26,1.19,.21,1.75,0-.41-.15-.88-.15-1.24-.41-.57-.46-.46-.82-.67-1.24m49.34-26.81c.77-1.44,1.5-2.94,2.22-4.43,.41-.93,1.34-2.17,.26-2.89-.72-.52-2.11-1.19-3.04-.82-.77,.31-1.24,2.22-2.32,.98-.21,.57-.88,.46-1.29,.77-.31,.21-.26,.46-.46,.77s-.52,.52-.72,.77c-.21-.41-.41-.77-.72-1.08-.26,.41-.21,.67-.31,1.08-.1,.26-.15,.41-.41,.52-.57,.21-1.13-.52-1.44-.88,.15,.62,.26,1.34-.15,1.86-.31,.41-.88,.52-1.19,.93-.36,.46-.36,.88-.98,1.08-.1,.05-.52,.15-.67,.15s-.21-.26-.26-.26c-.21,0-.52,.26-.67,.31,.36,.46,.26,.67-.21,.98-.52,.36-.46,.41-.72,1.03-.1,.26-.26,.52-.52,.67s-.62,0-.88,.21c-.46,.31-.41,1.19-.77,1.6-.52,.57-1.13,.93-1.6,1.55s-.82,1.29-1.19,2.01c-.67,1.34-1.6,2.58-1.7,4.12-.05,.62,0,1.44-.26,2.06-.31,.57-.93,.82-1.19,1.5-.21,.57-.31,1.29-.41,1.91-.1,.72,.36,1.29,.05,2.01-.31,.67-.36,1.19-.41,1.91-.05,.67-.62,1.19-.26,1.75,.31,.57,.67,.98,.77,1.7,.1,.77,0,1.03-.67,1.34,.41,.67,.82,1.19,1.03,1.96,.21,.72,.46,1.34,.93,1.96,.93,1.19,2.06,1.8,2.06,3.51l12.42-4.18c-1.6-.31-.77-3.09-.67-4.12,.21-1.91,.41-3.82,.67-5.72,.26-1.65,.72-3.25,.98-4.85,.15-.82,.26-1.7,.46-2.53,.21-.72,.62-1.39,.77-2.11,.36-1.6,.62-3.09,1.29-4.64,.62-1.65,1.44-3.09,2.17-4.49m-120.49,142.6c.31-.21,.62-.21,1.03-.21,.98-.1,1.8-.31,2.78-.62,1.13-.36,2.37-.52,3.56-.72,1.13-.21,2.27-.15,3.35-.46,1.08-.31,1.96-.62,3.14-.67,1.29-.05,2.01-.62,3.04,.41,.93-1.29,2.27-1.29,3.76-1.5,.52-.05,1.13,0,1.29-.62,.1-.57-.36-1.39-.62-1.86-1.34-2.53-2.53-5.21-4.33-7.48-1.75-2.22-4.07-4.69-6.55-6.08-1.34-.77-2.94-1.19-4.38-1.75-1.55-.62-3.09-1.29-4.64-1.96-.82,.88-.88,1.91-1.29,2.99-.36,1.03-1.03,1.91-1.34,2.94-.67,2.06-1.29,4.07-2.11,6.08-1.8,4.23-3.56,8.46-5.21,12.73,2.58-.41,5.1-.67,7.68-.82,.52,0,.46-.15,.82-.41m136.36-157.97c.72,.1,1.6,.26,2.06,.93,2.01-2.89,4.38-5.46,6.91-7.94,2.42-2.42,4.9-4.79,7.58-6.91,5.36-4.33,11.34-7.84,17.48-10.93-1.96-2.27-3.87-4.54-5.83-6.75-1.86-2.06-3.97-3.82-6.14-5.57-.15,1.75-.46,3.51-.46,5.26s.26,3.51,.26,5.26c0,1.44,0,2.94-.41,4.33-.26,1.08-.93,2.63-2.11,2.99-1.6,.46-4.33-.31-5.52-1.44-1.03-.98-1.6-2.42-2.42-3.56-.57-.77-1.13-1.08-2.11-.82-1.39,.46-2.78,1.29-4.12,1.96-1.5,.77-2.99,1.5-4.49,2.27,.1,.05,.72,.41,.72,.52,0,.05-.36,.77-.36,.93-.05,.57,.21,1.08,.41,1.65,.15,.57,.31,1.13,.31,1.7,0,.62-.36,1.03-.52,1.65s.31,.82,.57,1.34,.26,1.13,.15,1.7c-.1,.46-.36,.93-.36,1.39,0,.26,.21,.52,.15,.77-.05,.26-.36,.41-.57,.57,.82,.52,.98,.46,.62,1.34-.21,.62-.15,1.24-.05,1.91,.05,.36,.41,1.29,.15,1.65-.21,.31-.93,.05-1.29,.05,.1,.67,.31,.57,.62,1.13,.21,.36,.15,.82,.15,1.19,.05,1.03-.57,1.13-1.39,1.44m-119.3,107.44c1.08,.31,2.11,.57,3.25,.62,.98,.05,2.01,.1,2.89,.52,.31,.15,.72,.57,1.08,.57,.41,0,.31-.31,.62-.52s.52,0,.77,.1c.41,.1,.88,.1,1.29,.1,1.24,.05,2.42,.05,3.66,.1,1.08,.05,2.17,.21,3.25,.21h3.45c-.93-1.75-1.65-3.56-3.09-5-.72-.72-1.34-1.5-2.01-2.27-.67-.72-1.5-1.29-2.27-1.91-.77-.67-1.44-1.39-2.37-1.91-.36-.21-.82-.52-1.24-.62-.36-.1-.67-.05-.98-.26-.36-.21-.72-.67-1.08-.93s-.77-.52-1.19-.72c-.82-.46-1.65-.82-2.42-1.34-2.42,4.43-4.59,9.02-6.6,13.66,.98-.62,1.91-.72,2.99-.41m63.26-136.98c.21,.26,.46,.52,.62,.88,.15,.36,.05,.72,.15,1.08,.15,.41,.62,.62,.31,1.19-.21,.36-.72,.46-.82,.88-.26,.77,.62,1.5,.98,2.11,.21,.36,.36,.77,.26,1.19-.05,.26-.26,.46-.36,.67-.1,.41,0,0,.05,.41s.21,.88,.26,1.29c.05,.46-.1,.98-.05,1.39,.21,.98,.88,2.32,1.44,3.14,.52,.72,.88,.98,1.7,.67,4.33-1.7,5.21-6.39,6.08-10.41,.52-2.37,.82-4.69,.82-7.11,.05-2.53,.21-5.1,.05-7.63-.72,.21-1.6,.26-2.11,.88-.26,.31-.26,.72-.52,1.03-.36,.41-1.08,.77-1.55,1.08l-6.81,5.1-.93,.72c-.31,.26-.41,.21-.36,.57,.15,.31,.62,.67,.77,.88m30.42,14.13c-.41,.52-1.19,.67-1.7,1.13-.46,.46-.77,1.08-.98,1.7-.31,.82-.62,1.44-.67,2.32,0,.82-.26,1.6-.41,2.42-.1,.57-.05,.72,.52,.88,.77,.21,1.7,.21,2.47,.1,3.76-.41,6.75-3.3,9.07-6.03,2.63-3.14,4.74-6.65,6.96-10.05-1.08-.62-2.27-1.08-3.3-1.75-.98-.67-1.86-1.5-2.78-2.17-.15,.41-.15,.88-.31,1.24-.21,.46-.46,.52-.82,.77-.72,.46-1.29,1.08-1.75,1.75-.41,.62-.62,1.44-1.13,2.01-.46,.52-1.19,.72-1.7,1.19-.77,.62-1.44,1.75-2.11,2.53-.46,.62-.88,1.34-1.34,1.96m-70.53,34.49c.15,.41,.46,.98,.21,1.39-.41,.77-.82-.36-1.19-.57,.1,.67,.15,1.34,.36,1.96,.1,.41,.26,.88,.21,1.34-.1,.46-.46,.77-.52,1.24,0,.46,.26,.93,.31,1.39-.77-.1-.93-.21-1.39,.36,.21,.05,.67,.1,.82,.21,.21,.15,.1,.1,.15,.41,.05,.46,0,1.19-.05,1.65,0,.57-.31,.46-.57,.82-.15,.26-.1,.77-.1,1.08,.05,.41,.41,.82,.36,1.24-.05,.52-.52,.52-.77,.88-.31,.46-.05,.82,.1,1.34,.21,.67,.15,1.39,.26,2.06,3.3-6.7,5.93-13.71,9.64-20.21,.1-.15,.21-.31,.26-.46-.1-.05-.21-.15-.31-.21-.05-.31-.05-.72-.05-1.08-.05-.77-.26-1.55-.36-2.32-.1-.88,.1-1.7,0-2.58-.05-.31-.1-.57-.1-.88,0-.46,.26-.77,.26-1.19,.05-.41-.21-.98-.21-1.39,0-.36,.05-.67,.1-1.03,.15-.93,.41-1.8,.57-2.73,.26-1.86,.31-3.76,.62-5.67-.52,.72-1.08,1.44-1.55,2.17-.52,.72-.82,1.55-1.24,2.32-.36,.62-.82,1.24-1.34,1.8q-.41,.46-.26,1.03c.05,.26,.15,.52,.1,.82-.15,1.13-1.86,.77-1.65,2.01,.1,.62,.62,1.19,.36,1.86-.21,.62-.93,.93-1.19,1.5-.31,.67,.1,1.08,.1,1.75,0,.57-.21,.98-.62,1.34-.52,.52-.52,.88-.62,1.6-.1,.67-.36,1.29-.67,1.86-.31,.57-.72,.72-.57,1.39,.05,.57,.31,1.03,.52,1.5m-7.94,10.21c.57,2.17,1.44,4.28,2.63,6.19,.21-1.08,.52-2.17,.57-3.3,.05-1.13,.1-2.22,.21-3.35,.21-2.06,.62-4.18,1.03-6.19,.88-4.33,1.75-8.61,2.63-12.94-1.34,2.17-2.68,4.28-4.02,6.44-.67,1.03-1.29,2.11-1.96,3.14-.52,.88-1.5,1.96-1.65,2.94-.15,1.13-.05,2.53,0,3.71,.1,1.19,.31,2.27,.57,3.35m19.02-25.83c0,.31,.21,.62,.31,.93,.05,.36,.05,.72,.05,1.08,0,.88,.05,1.75,.1,2.63,1.8-2.47,2.73-5.36,4.33-7.94,.67-1.08,1.44-2.17,1.96-3.4,.57-1.34,1.08-2.63,1.7-3.92,.36-.72,.72-1.39,1.08-2.11,.15-.36,.36-.52,.15-.82-.05-.15-.31-.31-.46-.36-.46-.1-.72,.46-1.08,.62-.52,.26-1.13,.15-1.65,.36-1.19,.41-2.37,1.13-3.56,1.65-.36,.15-.67,.21-.62,.67,.05,.41,.46,.31,0,.67-.21,.21-.52,.1-.77,.05,0,.88,.15,1.39-.26,2.17-.36,.62-.21,1.08-.26,1.75-.05,.77-.36,1.55-.62,2.22s-.67,1.13-.26,1.8c.21,.36,.67,.62,.41,1.08-.21,.46-.62,.31-.57,.88m-5.1,114.71c-1.29-.77-.05-1.55,0-2.27v2.27Zm-1.96-4.33c-.21,0-.88,.1-.98,.26-.05,.1,.05,.93,.05,1.03,0,.62-.05,1.29-.05,1.91,.05,.67,.36,1.24,.41,1.86,0,.57-.36,.88-.52,1.44-.21,.67,.05,2.58,.82,2.78,0-.15,.05-1.39,.15-1.44,.36-.15,.57,.77,.67,1.03,1.03-.98,1.29-2.37,1.8-3.71,.57-1.55,1.08-3.09,1.65-4.64-.67-.05-1.34-.1-2.01-.21-.72-.1-1.39-.36-2.01-.31Zm-17.79,43.93c-.57,.26-.41,.93-.41,1.55,0,.82,.31,1.5,1.03,1.96,.26-.72,1.24-2.27,.93-3.04-.15-.57-1.03-.67-1.55-.46"/>
    <path class="cls-2" d="M274.94,128.49c.36-.36,.98-.57,1.03-1.13,.05-.57-.46-1.44-.62-1.96l-.41,3.09m-83.21,106c-.98,0,.1-2.01,.26-2.47,.31,.46,1.03,2.47-.26,2.47m8.15-25.67c.36-.21,1.13-.52,1.34-.93,.26-.52-.26-.52-.67-.52-.52-.05-1.19-.05-1.7,.05s-.72,.21-1.24-.1c-.26-.15-.52-.62-.82-.67-.31-.05-.72,.26-.98,.41-.98,.46-2.06,.15-3.09,.21-.41,0-.72,.1-1.08-.05-.46-.21-.57-.52-1.13-.46-.93,.05-1.65,.36-2.63,.1-.62-.15-1.39-.77-2.06-.57-.62,.15-.93,1.13-1.39,1.5-.15-.82-.26-1.7-.88-2.32-.72-.67-1.86-.93-2.63-1.5-1.86-1.29-3.14-3.09-4.54-4.79-.88,1.34-1.5,2.58-2.11,4.07-.57,1.44-1.13,2.89-1.7,4.33-1.13,2.89-2.37,5.72-3.61,8.61-2.53,5.77-5.36,11.39-7.89,17.17,1.7,.05,3.35,.88,4.85,1.7,.36,.21,.41,.31,.67,.62,.1,.15,.26,.57,.52,.62,.1,.05,.52-.21,.72-.15,.31,.05,.52,.26,.72,.41,1.44,1.13,2.84,2.32,4.23,3.56,.62,.57,1.03,1.08,1.5,1.8,.46,.77,.98,1.29,1.7,1.91,1.13,.93,1.8,2.58,2.63,3.82,.46,.72,.93,1.44,1.29,2.22,.31,.72,.41,1.55,1.03,2.11,1.24,1.19,3.14,.52,4.64,.67,.57,.05,.72,.26,1.24,0,0-.21,.1-.26,.26-.21s.31,.1,.46,.26c.41,.21,.77,.46,1.13,.72l.67-1.6c-.26,0-1.13,.1-1.29-.26-.1-.31,.36-.41,.57-.57,.21-.21,.31-.93,.72-.88,.31,0,.31,.31,.31,.57,.72,0,.72-.62,.82-1.13,.1-.36,.21-.72,.31-1.03,.05-.26,.46-1.19,.36-1.39-.26-.52-1.86-.46-.82-1.08,.31-.21,1.08-.15,1.34-.41,.21-.21,.21-1.13,.26-1.44-.46,.05-1.03,.31-1.34-.1-.41-.62,.21-1.55,.52-2.06,.41,.31,.67,.67,1.13,.31,.52-.41,.93-1.13,1.13-1.7-.52,0-.46,.1-.72-.31-.15-.26-.21-.67-.26-.93-.15-.57-.46-.98,.21-1.13,.41-.1,.52,0,.62,.41,.15,.52,.1,1.39,.15,1.96,.67-.82,1.29-1.7,1.08-2.78-.41,.41-.46,.31-.93,0-.52-.31-.98-.67-1.5-.98,.62-.57,1.6,0,2.22-.46,.41-.31,.21-1.29,.26-1.7,.05-.57,.26-1.08,.26-1.65-.05-.57-.72-.82-.36-1.39,.26-.36,.82-.31,.93-.88,.1-.57-.46-.93-.88-1.19,.62-.21,1.86-.41,1.29-1.29-.26-.41-.62-.41-.62-1.03,0-.41,.26-.88,.46-1.24,.26,.57,.57,1.8,1.34,1.8,.62-.05,1.19-.57,.98-1.13-.57-1.7-2.11-1.86-3.61-2.17,.26-1.03,1.03-.98,1.8-.46,.46,.31,.72,.57,1.29,.26,.57-.36,.31-.46,.05-.93-.52-.98,.21-1.55,.93-2.11,.41-.31,.62-.72,.98-1.08,.36-.36,.98-.46,1.39-.67-.57-.26-1.03-.57-1.65-.36-.41,.15-.72,.41-1.19,.15-1.03-.52,.31-.67,.46-1.08,.1-.26-.21-.77-.1-1.08,.1-.36,.31-.67,.52-.98,.41-.67,.88-1.34,.62-2.17,.52,.57,.67,.72,.72,1.55,.05,.72,.05,1.44,.21,2.17,.05-1.08,1.03-1.75,1.19-2.78,.05-.31-.21-1.08,.1-1.29,.26-.15,.72,.21,.98,.21-.15-.98-.21-2.01-.52-2.94-.67-1.13-1.5-1.5-2.17-2.11"/>
  </g>
  <g>
    <path class="cls-3" d="M467.08,105.55c-1.29,.26-2.53,.67-3.87,.93-1.55,.31-3.09,.57-4.64,.77-1.03,.15-2.01,.41-2.68,1.24-1.29,1.65-2.58,4.43-.82,6.14,.82,.82,2.27,.57,3.35,.88,1.19,.36,2.27,.77,3.51,.98,5.77,.77,11.55,2.17,17.22,3.56,2.58,.62,5.16,1.5,7.63,2.53,1.29,.52,2.47,1.08,3.61,1.86,.98,.67,2.06,1.29,2.84,2.17-3.09,.52-6.55,.57-9.69,.05-1.55-.26-3.09-.21-4.69-.31-1.55-.1-3.14-.21-4.69-.36s-3.04-.31-4.54-.52c-.57-.1-1.13-.15-1.7-.1-.31,.05-.52,.15-.82,.05-.26-.05-.52-.26-.77-.36-1.13-.41-2.37-.31-3.61-.36-.88-.05-1.86-.31-2.78-.1-1.6,.36-2.32,2.58-2.68,3.92-.21,.88-.05,1.91,.26,2.78,.31,.98,.93,.98,1.7,1.39,1.13,.62,2.11,1.34,3.3,1.8,1.03,.41,2.06,.77,3.04,1.24,2.22,.98,4.59,1.8,6.7,3.04,1.13,.67,2.22,1.34,3.4,1.91,1.08,.52,2.11,1.13,3.04,1.8,2.01,1.39,3.71,3.09,5.21,5-.67,0-1.24,.1-1.91-.15-.82-.26-1.55-.72-2.37-.98-1.55-.52-3.09-.93-4.59-1.5-1.55-.57-3.09-1.13-4.64-1.6-.82-.26-1.6-.36-2.42-.52-.72-.15-1.34-.46-2.01-.77-3.25-1.29-6.75-1.96-10.1-2.89-3.3-.93-6.5-1.86-9.85-2.53-1.55-.31-3.09-.57-4.69-.82-1.55-.21-2.89,0-4.38,.41-1.55,.41-2.99,.82-4.49,1.44-1.08,.46-2.63,.88-3.51,1.7-.52,.46-.82,.98-1.44,1.34-.46,.26-1.03,.46-1.55,.67-1.19,.41-2.27,.98-3.45,1.44-.72,.26-1.5,.52-2.27,.57s-1.03,.21-1.7,.57c-1.03,.52-2.22,.77-3.3,1.08-1.08,.36-2.37,1.29-3.56,.88-1.19-.41-1.91-1.91-2.58-2.84-1.8-2.42-3.4-4.85-4.43-7.78-1.08-3.09-2.11-6.14-3.14-9.23-.57-1.6-1.08-3.2-1.65-4.79-.31-.88-.93-1.86-.26-2.68,.82-.93,1.08-2.42,1.91-3.51,.82-1.08,1.75-2.01,2.63-3.04,.52-.57,1.03-1.19,1.5-1.86,.36-.52,.67-1.19,1.08-1.65,.36-.46,.93-.72,1.34-1.08,.46-.46,.88-.98,1.29-1.44,1.08-1.24,2.11-2.58,3.25-3.76,.93-.98,2.06-1.86,3.04-2.84,2.11-2.11,4.38-4.07,6.6-6.08,2.17-1.96,4.33-3.87,6.39-5.88,1.96-1.91,4.33-3.4,6.5-5,2.42-1.75,4.69-3.56,7.32-5,2.47-1.39,4.95-1.8,7.73-2.22-.26,.52-.46,1.08-.82,1.6-.52,.72-1.24,1.34-1.86,2.01-1.24,1.34-2.47,2.68-3.71,4.02-2.42,2.58-4.95,5.05-7.32,7.73-1.86,2.11-3.35,4.28-4.12,7.01-.41,1.44-.62,2.99,.26,4.33,.67,1.03,1.75,.93,2.89,.82,2.89-.26,5.72-1.24,8.56-1.75,3.14-.57,6.39-.72,9.54-1.03,1.6-.15,3.2-.62,4.79-.72,.72-.05,1.44,.1,2.17,.05,.72-.05,1.44-.26,2.17-.36,1.5-.26,2.84-.41,4.33-.21,1.5,.21,2.94,.05,4.43-.1,3.14-.26,6.39,.1,9.54,.41,2.99,.31,5.98,.67,8.92,1.39-3.09,.77-6.14,1.6-9.23,2.32-3.14,.72-6.39,1.24-9.49,2.17-1.39,.36-2.73,.46-4.12,.72h0Zm-243.24,65.11c.36-1.24,.67-2.53,1.08-3.76,.1-.26,.26-.52,.41-.72-.31,.46-.52,.98-.67,1.6-.31,.98-.57,1.96-.82,2.89h0Zm188.02-11.19c-1.24,.77-2.42,1.29-3.4,2.37-2.27,2.42-4.69,4.74-6.86,7.27-.88,1.03-1.34,2.27-2.32,3.2-1.13,1.08-2.47,1.91-3.71,2.78-2.78,1.96-5.57,4.07-8.51,5.77-.67,.36-1.34,.77-2.01,1.13-.46,.21-1.03,.36-1.39,.67-.36,.31-.52,.77-.93,1.03-.31,.21-.67,.41-.98,.62-2.58,1.65-5.21,3.25-7.78,4.85-2.58,1.55-5.1,3.09-7.63,4.74-1.34,.88-2.58,1.86-3.92,2.68-1.08,.72-2.22,1.34-3.3,2.06-1.13,.77-2.17,1.55-3.45,2.17-1.19,.57-2.42,1.08-3.66,1.65-.72,.36-1.34,.77-2.01,1.19-.41,.26-.82,.21-1.29,.41-1.39,.46-2.63,1.29-4.07,1.75-5.88,1.8-11.6-.77-16.7-3.56-2.58-1.39-4.95-3.2-7.42-4.74-1.08-.67-2.42-1.19-3.45-2.01-.52-.41-.67-.82-1.29-1.13-.52-.31-1.03-.57-1.5-.93-2.37-1.8-4.54-3.71-6.65-5.83-1.13-1.13-2.27-2.32-3.4-3.51-.88-.93-1.55-2.06-2.37-3.04-1.96-2.37-3.82-4.79-5.72-7.27-.93-1.19-1.8-2.37-2.73-3.56-.62-.77-1.55-1.55-1.75-2.58-.21-.93,.36-1.86,.82-2.63,.67-1.19,1.34-2.32,1.8-3.61,.67-1.91,1.75-5.62-.36-7.01-.77,1.29-1.75,2.42-2.58,3.66s-1.19,2.84-2.22,3.97c-1.08,1.19-2.47,2.01-3.61,3.14s-2.11,2.37-3.2,3.56c-1.13,1.24-2.32,2.37-3.51,3.56-1.13,1.08-2.37,2.01-3.66,2.94-1.29,.98-2.68,1.86-4.07,2.68-.62,.36-1.24,.82-1.91,1.03-.72,.26-1.34,.41-2.01,.77-2.78,1.44-5.57,2.84-8.4,4.18-.77,.36-1.55,.88-2.37,1.08-.31,.05-.52,0-.82,.1-.36,.1-.72,.31-1.08,.46-1.44,.62-2.94,1.13-4.43,1.65-3.14,1.03-6.29,2.01-9.38,3.14-2.89,1.08-5.72,2.22-8.71,3.04-2.94,.82-6.03,.98-9.07,1.24-.82,.1-1.75,0-2.53,.21-.72,.21-1.08,.36-1.86,.31-1.34-.1-2.63,.15-3.97,.36,2.06-4.02,3.09-8.61,4.59-12.84,.41-1.13,.88-2.17,1.19-3.3,.31-1.03,.72-2.01,1.24-2.94,.62-1.13,.82-2.47,1.24-3.66-.31,.98-.52,1.96-.82,2.94,.41-.82,.88-1.6,1.29-2.42,.41-.88,.41-1.34,.41-2.27,1.08,.1,1.13-.98,1.29-1.8,.26-1.24,.52-2.42,.77-3.66,.15-.26,.1-.72,.15-1.03,.1-.36,.21-.72,.36-1.08,.98-2.73,2.01-5.36,2.68-8.15,.77-3.09,1.44-6.19,2.11-9.28,.36-1.65,.82-3.3,1.03-5,.05-.82,.46-3.4-.67-3.76-.88-.26-1.8,2.42-2.06,2.99-.57,1.44-1.08,2.89-1.6,4.33-.46,1.29-.82,2.58-1.39,3.87-.52,1.29-.72,2.63-1.19,3.92-.26,.77-.72,1.34-1.03,2.06-.21,.52-.31,1.13-.52,1.65-.36,1.13-.98,2.27-1.39,3.4-.57,1.44-1.24,2.84-1.8,4.28-.57,1.29-.88,2.68-1.39,3.97-.52,1.24-1.29,2.37-1.75,3.66-.57,1.39-1.03,2.78-1.6,4.18-1.13,2.89-2.22,5.72-3.09,8.71-.21,.72-.57,1.5-.77,2.11-.15,.62-.46,1.08-.67,1.65-.41,1.08-.62,2.27-.82,3.4l.05-.36c-.46,0-.93,.1-1.24-.26-.36-.46-.26-1.34-.31-1.86-.52,.05-.31,.31-.26,.77l.1,.72,.21,1.8c.15-.1,.52-.67,.67-.67,.21,0,.46,.57,.57,.88-.05,.1-.1,.21-.15,.31-.15,.26-.26,.46-.36,.77-.21,.57-.36,1.08-.62,1.6-.15,.26-.31,.52-.46,.72-.15,.15-.57,.41-.67,.62-.21,.41,.1,1.5,.05,2.01-.05,.67-.15,1.34-.41,1.96-.1,.26-.36,.41-.46,.62-.15,.31-.15,.46-.21,.88-.1,1.39-.67,2.73-1.13,4.02-.57,1.44-.98,2.99-1.44,4.43-.46,1.39-1.08,2.73-1.55,4.12-.57,1.6-1.08,3.25-1.65,4.9-.41,1.24-1.03,2.32-1.44,3.51-.46,1.24-1.08,2.32-1.29,3.61-.26,1.39-.98,2.84-1.55,4.18-.46,1.08-1.39,2.27-1.55,3.45-.1,.57,.05,1.08-.15,1.6-.15,.46-.46,.88-.67,1.34-.26,.62-.05,1.19-.26,1.86-.15,.57-.57,.93-.82,1.44-.52,.82-.36,1.8-.93,2.68-.77,1.24-1.03,2.63-1.5,4.02-.21,.67-.36,1.39-.57,2.11-.05,.26-.1,.82-.26,1.08-.21,.31-.52,.21-.67,.36-.15,.15-.15,.67-.21,.88-.21,.67-.46,1.29-.72,1.91-.57,1.34-1.24,2.68-1.7,4.07-.52,1.44-1.03,2.89-1.55,4.33-.26,.67-.46,1.39-.77,2.06-.26,.67-.52,.88-.98,1.39-.41,.52-.62,1.19-1.03,1.75-.36,.52-.62,.88-.82,1.5-.31,1.19-.57,2.32-1.03,3.45-1.24,2.84-2.78,5.52-4.02,8.35-1.29,2.99-2.53,5.98-3.66,9.02-1.03,2.84-1.75,5.83-2.78,8.66-1.08,2.84-2.01,5.67-3.04,8.51-1.08,2.94-2.17,5.83-3.14,8.82-.36,1.08-.57,2.11-.82,3.2,.05-.46,.15-.98,.21-1.39-1.03,1.75-2.01,3.66-1.55,5.72,.31-.41,.52-.88,.67-1.34-.05,.26-.15,.52-.26,.72-.31,.62-.57,1.08-.77,1.8-.46,1.55-.88,3.04-1.34,4.59-.21,.72-.41,1.5-.67,2.22-.21,.62-.67,1.19-.88,1.8-.21,.72-.15,1.55-.31,2.27-.15,.62-.36,1.29-.72,1.86-.26,.46-.62,.82-.82,1.29-.26,.57-.1,1.13-.15,1.75-.1,.77-.36,1.5-.46,2.22-.1,.72,.26,1.19,.36,1.86,.15,.72-.15,1.19-.36,1.86-.21,.57-.31,1.19-.41,1.75-.05,.26-.1,1.03-.26,1.19-.1,.1-.88,.15-1.03,.15-.67,.1-1.39,.26-2.11,.26-1.5,0-2.99-.21-4.49-.36-2.99-.31-5.98-.77-8.87-1.7-2.73-.88-5.46-2.17-7.99-3.51s-4.79-3.2-6.91-5.1c-1.13-1.03-2.27-2.17-3.35-3.25-.52-.52-1.03-1.08-1.6-1.6-.41-.41-.98-.82-1.03-1.44-.05-.72,.46-1.55,.72-2.22,.21-.57,.46-1.19,.67-1.75,.57-1.44,1.08-2.89,1.6-4.33,1.13-2.99,2.22-5.98,3.3-8.97,1.13-2.99,2.27-5.93,3.61-8.87,1.29-2.78,2.47-5.57,3.56-8.46,1.03-2.73,2.22-5.31,3.35-7.99,.62-1.44,1.19-2.89,1.65-4.33,.41-1.24,.67-2.42,1.29-3.56,.41-.77,.72-1.5,.93-2.32,.21-.72,.31-1.29,.77-1.86,.98-1.19,1.5-2.58,2.01-4.02,.98-2.84,2.06-5.67,3.4-8.3,1.34-2.68,2.89-5.26,4.12-8.04s2.94-5.26,4.12-8.09c2.42-5.83,5.72-11.14,8.2-16.91,2.42-5.72,5.26-11.19,7.73-16.86,1.29-2.99,2.53-5.93,3.71-8.97,.57-1.44,1.13-2.89,1.7-4.33,.52-1.29,1.44-2.27,1.8-3.61s.98-2.42,1.65-3.66c.67-1.29,1.03-2.78,1.55-4.12,1.13-2.94,2.37-5.83,3.61-8.71,1.29-2.99,2.63-5.88,3.92-8.87,.52-1.13,.77-2.32,1.29-3.4,.26-.57,.77-1.03,.98-1.55,.1-.26,.1-.57,.15-.82,.1-.36,.36-.72,.52-1.03,1.34-2.68,2.78-5.31,3.97-8.04,1.24-2.84,2.47-5.62,3.56-8.51,1.08-2.84,2.42-5.52,3.35-8.46,.41-1.39,.88-2.78,1.19-4.18,.31-1.24,.82-3.04,.57-4.33-.15-.77-1.08-2.37-2.01-1.65-.82,.67-1.34,1.96-1.8,2.89-.67,1.39-1.44,2.78-2.01,4.23-.46,1.13-.88,2.27-1.55,3.35-1.6,2.58-2.84,5.26-4.28,7.94-.31,.62-.72,1.08-1.13,1.6-.41,.52-.31,.72-.46,1.39-.31,1.13-1.24,2.06-1.75,3.14-.62,1.44-1.19,2.78-2.01,4.12-.67,1.19-1.34,2.37-1.91,3.61-1.29,2.84-2.53,5.67-3.82,8.51-.67,1.5-1.34,3.04-2.06,4.49-.31,.67-.62,1.29-.98,1.96-.21,.41-.62,.72-.82,1.19s0,.88-.15,1.34c-.21,.52-.46,.77-.93,.46-1.03-.72-1.24-2.22-1.8-3.25-1.34-2.53-2.58-4.9-3.09-7.73-.26-1.6-.15-3.2-.15-4.79,0-1.44,.88-2.37,1.6-3.56,1.75-2.73,3.45-5.52,5.26-8.25,.77-1.19,1.44-2.47,2.27-3.66,.77-1.13,1.8-2.01,2.63-3.04,.46-.62,.82-1.24,1.34-1.8,.41-.46,.82-.98,1.19-1.55,.67-1.03,1.13-2.17,1.86-3.14,1.7-2.37,3.45-4.69,5.26-7.01,.98-1.24,2.11-1.96,3.3-2.94,1.19-.93,2.22-2.06,3.25-3.09,2.06-2.01,4.02-4.12,6.29-5.93,2.37-1.8,4.79-3.51,7.27-5.16,1.24-.77,2.73-1.39,3.71-2.47,.41-.46,.82-.88,1.34-1.19s1.08-.36,1.55-.67c1.39-.77,2.63-2.01,3.92-2.99,1.24-.98,2.47-1.91,3.76-2.89,.52-.41,1.5-.88,1.91-1.39,.21-.31,.21-.67,.41-.98,.57-.67,1.65-.77,2.42-1.03,1.5-.57,2.99-.88,4.54-1.19,1.39-.26,2.68-.88,4.02-1.34,2.89-1.03,5.88-1.6,8.92-1.91-1.39,4.02-2.94,7.99-3.97,12.17-.41,1.65-.52,3.61-1.19,5.21-.26,.57-.93,1.13-.62,1.75,.26,.46,.98,.98,1.39,1.29,.93,.62,2.11-.05,2.99-.41,1.55-.62,3.04-1.44,4.74-1.7,1.7-.31,3.2-1.91,4.95-1.91,.77,0,1.34,.36,1.91,.82,.57,.46,1.24,.88,1.8,1.39,1.24,1.13,2.68,2.06,4.23,2.68,.52,.21,.98,.1,1.5,.52,.36,.31,.67,.77,1.19,.88-2.37,2.53-4.64,5.05-6.65,7.89-.98,1.39-1.7,2.73-2.27,4.38-.26,.77-.46,1.34,0,2.06,.26,.41,.72,.72,1.19,.67,1.24-.21,2.32-1.86,2.99-2.73,.77-1.03,1.65-2.01,2.47-3.04,1.7-2.11,3.2-4.33,5.31-6.08,.62-.52,1.29-1.08,1.96-1.55,.57-.36,.93-.1,1.55-.21,1.55-.26,2.94-1.08,4.28-1.75,1.5-.77,2.99-1.5,4.49-2.22,.77-.36,1.96-1.19,2.89-.82,1.03,.41,1.6,2.06,2.17,2.94,.57,.82,1.03,1.55,1.91,2.01,1.44,.77,4.33,1.7,5.57,.21,1.8-2.11,1.65-5.57,1.5-8.2-.1-1.6-.31-3.2-.15-4.79,.1-1.39,.26-2.78,.41-4.18,2.58,2.11,5,4.28,7.17,6.86,1.13,1.39,2.32,2.68,3.51,4.02,.57,.67,1.13,1.24,1.5,2.06,.36,.67,.82,1.29,1.34,1.8,1.08,1.19,1.8,2.73,2.63,4.07,.77,1.29,1.6,2.63,2.32,3.97,1.5,2.58,2.89,5.16,4.07,7.94,.62,1.44,1.39,2.73,2.01,4.18,.62,1.44,1.19,2.84,1.8,4.28,.36,.82,.72,1.65,.98,2.53,.21,.57,0,1.34,.26,1.91,.21,.52,.72,.98,.93,1.55,.21,.57,.36,1.19,.57,1.75,1.13,2.84,2.63,5.46,3.92,8.25,1.29,2.84,2.58,5.72,4.18,8.46,1.6,2.78,3.56,5.31,5.46,7.89,.98,1.34,2.01,2.63,2.99,4.02,.36,.52,.67,1.03,1.13,1.44,.41,.36,.98,.52,1.5,.77,.26-.72,.67-1.24,.52-2.06-.1-.72-.36-1.39-.57-2.06-.41-1.29-1.5-2.47-1.24-3.87,.26-1.34,1.34-2.42,2.17-3.4,1.08-1.34,2.22-2.68,3.3-4.02,3.71-4.49,7.63-8.76,11.45-13.1,1.96-2.22,3.87-4.49,5.88-6.65,.93-.98,1.96-1.75,2.94-2.68,.77-.72,1.29-1.65,2.06-2.42,.57-.57,1.19-.98,1.75-1.55l1.39-1.39c1.03-1.03,2.01-2.06,2.99-3.09,2.01-2.06,3.87-4.28,5.83-6.39,3.82-4.07,7.78-7.94,11.75-11.86,1.13,3.4,2.11,6.91,2.89,10.36,.21,.88,.31,1.75,.57,2.58,.31,.82,.67,1.6,.98,2.37,.67,1.8,1.24,3.66,2.11,5.36,1.65,3.25,3.09,6.96,5.46,9.74,1.19,1.39,2.78,2.58,4.18,3.76l4.43,3.87c-.77,.72-2.11,1.75-3.51,2.63h0Zm-122.6,21.45c-.1-.31-.26-.46-.36-.52,.1,.05,.21,.15,.31,.36,.26,.52,.41,1.03,.57,1.6-.15-.52-.31-.98-.52-1.44Zm-35.78,25.62c1.03,1.13,2.11,2.22,3.14,3.35,.98,1.03,1.7,2.17,2.58,3.3,1.86,2.42,3.76,4.79,5.77,7.06,1.91,2.22,4.02,4.28,5.88,6.55,1.86,2.27,3.25,4.74,4.64,7.32,.62,1.19,1.39,2.32,2.22,3.4,.41,.46,.93,.93,1.19,1.5,.26,.67,.36,1.44,.52,2.11,1.44,6.14,2.89,12.27,4.28,18.41,.67,2.99,1.13,5.98,1.75,8.97,.67,3.04,1.65,5.93,2.27,8.97,1.24,6.14,2.11,12.37,3.45,18.46,1.34,5.93,3.61,11.6,4.85,17.58,.15,.82,.41,1.6,.26,2.47-.15,.72-.31,1.34-.31,2.06,0,1.24-.15,2.27-.88,3.35-1.44,2.11-3.45,3.97-5.77,5-1.24,.57-2.42,1.34-3.76,1.65-.67,.15-1.29,.05-1.91,.15-.67,.1-1.19,.57-1.8,.77-2.42,.98-5.46,.67-7.99,.67-2.78,0-5.62-.21-8.2-1.34-.21-.1-.41-.21-.62-.31-.36-.05-.41-.21-.21-.46,0-.31,.15-.62,.15-.93,.05-.62-.15-1.24-.31-1.86-.36-1.44-.72-2.89-1.08-4.38-1.39-6.08-2.01-12.22-2.89-18.35-.41-3.14-1.08-6.29-1.6-9.49-.52-3.04-.82-6.08-1.24-9.13s-.82-6.08-1.24-9.07c-.21-1.65-.72-3.3-.93-4.95-.15-1.24,.15-2.42-.1-3.71-.67-2.94-.67-6.03-1.44-8.97-.77-3.04-1.91-5.98-2.94-8.92-.52-1.55-1.08-3.04-1.6-4.59-.31-.88-.67-1.86-1.6-2.32-.52-.26-1.03-.21-1.5-.57-.57-.41-1.03-1.03-1.55-1.55-1.08-1.08-2.17-2.17-3.25-3.3-4.23-4.23-8.35-8.66-12.99-12.42-2.17-1.75-4.18-3.71-6.6-5.1-2.58-1.55-5.1-3.09-7.68-4.64-1.29-.72-2.58-1.39-3.97-1.96-1.24-.46-.46-1.65-.1-2.58,.52-1.44,1.03-2.94,1.44-4.38,.36-1.13,.52-2.58,1.65-3.2,.77-.41,1.08,.05,1.8,.31,.52,.15,1.03,.21,1.6,.15,1.19-.05,2.58-.57,3.76-.41,.77,.1,1.19,.15,2.01,0,.72-.1,1.44-.15,2.17-.21,1.34-.1,2.68-.1,4.02-.36,2.89-.52,5.83-1.19,8.56-2.17,2.94-1.03,5.77-2.47,8.61-3.82,.21,1.29,.36,2.63,.88,3.87,.36,.98,1.03,2.32,1.96,2.84,2.06,1.44,3.14,3.4,4.64,5.16h0Zm43.31,124.46c.88-.46,1.08,.21,1.6,.93,1.44,2.01,2.94,4.02,4.38,6.03,1.44,1.96,2.89,3.92,4.28,5.83,1.34,1.8,2.84,3.56,4.07,5.46,1.29,1.96,2.27,4.12,3.25,6.19,.82,1.8,2.01,3.66,1.13,5.67-.82,1.86-3.09,2.63-4.79,3.51-2.11,1.13-3.76,1.91-6.19,1.08-4.54-1.6-8.97-3.71-13.3-5.88-3.97-1.96-6.91-4.9-10.21-7.78-1.7-1.5-3.51-2.89-5.1-4.54-1.65-1.7-3.25-3.51-4.95-5.16-2.63-2.63-5.36-4.95-4.9-9.02,2.47,.82,4.95,1.91,7.53,2.37,2.73,.52,5.52,.88,8.3,.72,1.19-.05,2.32-.41,3.45-.62s2.32,0,3.4-.57c.93-.52,1.55-1.08,2.63-1.34s2.06-.62,2.99-1.29c.88-.52,1.6-1.13,2.42-1.6h0Zm-78.78-108.22s.05,0,.05,.05c0,0,0-.05-.05-.05Zm-2.89-1.65c.05,0,.05,.05,.1,.05-.05,0-.1,0-.1-.05Zm-53.51,144.05c1.19,2.11,2.32,4.23,3.45,6.34,.57,1.08,1.08,2.17,1.6,3.2,.46,.98,.93,1.75,.98,2.89-2.32-.26-4.69-1.65-6.7-2.89-2.06-1.29-3.87-2.89-5.62-4.54-1.7-1.65-3.51-3.25-5.31-4.74-.88-.67-1.75-1.29-2.68-1.86-.31-.15-.57-.36-.82-.57-.31-.31-.41-.82-.72-1.03-.72-.46-1.8,.21-2.47,.52-.82,.41-1.65,.93-2.37,1.55-.82,.72-1.34,1.65-2.06,2.42-.67,.77-1.34,1.5-1.91,2.32-1.34,1.86-2.78,3.82-4.49,5.31-.77,.67-1.75,1.24-2.42,2.01-.62,.72-1.34,1.44-2.06,2.06-1.7,1.39-3.14,2.78-4.59,4.38-1.6,1.8-3.4,3.4-5.1,5.1-.26-1.08,.21-1.96,.67-2.89,.57-1.08,.93-2.22,1.39-3.35,.98-2.42,2.11-4.79,3.3-7.06,1.13-2.17,2.32-4.28,3.4-6.44,.93-1.8,2.32-4.02,1.91-6.14-.15-.82-.62-2.06-1.5-2.32s-1.75,.52-2.47,.93c-2.06,1.24-4.23,2.22-6.44,3.14s-4.49,1.8-6.6,2.94c-2.06,1.08-4.02,2.37-6.14,3.45-1.03,.52-2.11,.93-3.14,1.5-.98,.52-1.91,1.13-2.89,1.65-1.91,1.08-3.92,1.8-6.14,2.11,1.55-2.01,3.61-3.51,5.62-5.05,2.32-1.8,4.64-3.61,7.01-5.31,2.17-1.55,4.33-2.99,6.44-4.59,.98-.72,1.96-1.5,2.89-2.32,.77-.67,1.65-1.34,1.86-2.42,.15-.98-.26-2.11-1.08-2.68-.82-.57-1.86-.41-2.78-.31-2.58,.36-5.16,1.19-7.68,1.91-.57,.15-1.19,.46-1.75,.57-.57,.15-1.29,.1-1.86,.1-1.13,.05-2.27,.1-3.35,.26-1.19,.15-2.37,.1-3.51,.31-1.03,.15-1.8,.72-2.89,.72-4.79-.1-9.23,2.53-13.97,2.53,2.84-1.65,5.67-3.3,8.51-4.95,1.29-.77,2.68-1.39,3.92-2.22,1.39-.93,2.68-1.96,4.12-2.78,5.16-3.04,10.88-5.26,15.57-9.02,1.13-.93,2.22-1.91,3.3-2.84,.26-.21,.57-.62,.88-.77,.46-.21,.31-.26,.72,.15,.46,.46,.77,1.03,1.13,1.55,1.5,2.11,3.35,3.92,5.41,5.46,2.42,1.75,5.21,2.84,7.89,4.07,2.73,1.24,5.41,2.58,8.25,3.56,2.89,.93,5.93,1.44,8.92,1.8,3.2,.36,6.14,.15,9.28-.21,.21,2.37,.41,4.38,1.55,6.55,1.13,2.06,2.47,3.92,3.56,5.93h0Zm11.96-180.7c.26,.05,.52,.05,.77,.15-.21-.05-.41-.05-.57-.1-.1,0-.15,0-.21-.05h0Zm.88,1.39c.1-.21,.21-.46,.26-.72-.05,.21-.15,.46-.26,.72h0Zm-27.17,40.11c-3.56,2.11-6.7,4.74-10.16,7.01-1.7,1.13-3.51,2.17-5.31,3.09-.88,.46-1.75,.88-2.68,1.24-.77,.31-1.55,.82-2.37,1.08-.88,.26-1.8,.1-2.68,0-.77-.1-1.55-.05-2.17-.57-1.13-.93-1.91-2.78-2.58-4.07-.98-1.8-2.11-3.71-2.84-5.62-.67-1.8-1.55-3.45-1.86-5.36,.62-1.03,.57-2.06,.05-3.09-.26-.46-.52-.93-.82-1.34-.31-.52-.31-.62-.88-.62l1.65,5.05c-.52-1.65-1.24-3.35-1.65-5.05-.31-1.5-.46-2.94-.98-4.38-.26-.72-.72-1.44-.93-2.17-.15-.62-.15-1.29-.26-1.91-.21-1.75-.67-3.51-.98-5.26-.52-3.35-.88-6.75-1.5-10.1-.67-3.45-1.5-6.86-2.27-10.26-.31-1.29-.77-2.42,.46-3.3,1.24-.88,2.58-1.55,3.87-2.32,1.24-.72,2.42-1.39,3.76-1.96,1.08-.46,2.17-.93,3.2-1.55,.62-.41,1.29-.41,1.96-.62,.72-.26,1.44-.52,2.17-.77,1.34-.46,2.63-.93,3.97-1.39,.72-.26,2.22-1.19,2.89-.46,.36,.36,.41,1.13,.52,1.6,.15,.77,.31,1.55,.46,2.32,.57,2.99,1.13,5.98,1.6,8.97,.46,2.94,.72,5.93,1.19,8.87,.1,.72,.46,1.6,.41,2.32-.05,.52-.41,.82-.77,1.19-.93,.88-1.8,1.8-2.63,2.78-.93,1.08-1.8,2.22-2.78,3.2-.98,.98-1.8,1.86-2.47,3.09-.57,1.03-1.34,1.96-1.08,3.2,.21,.93,.46,1.91,1.6,1.5,1.29-.46,2.42-1.7,3.45-2.58,.98-.88,1.96-1.75,2.99-2.58,1.13-.93,2.37-1.7,3.45-2.68,.93-.82,1.75-1.8,2.63-2.73,2.17-2.17,4.43-4.07,6.7-6.03,1.03-.93,1.91-2.06,2.84-3.04s1.96-1.91,2.94-2.89c2.11-2.06,4.38-4.12,6.34-6.34,.98-1.03,1.96-2.06,2.94-3.09,.41-.41,.67-.98,1.08-1.39,.36-.41,.93-.67,1.34-1.03,1.8-1.65,2.78-3.92,4.54-5.57,.46,1.03,.82,2.06,1.13,3.14,.31,.98,.57,2.17,1.13,3.04,.26,.41,.72,.72,.93,1.13,.21,.41,.15,.88,.31,1.34,.31,.82,.88,1.7,1.34,2.47,.52,.82,1.19,1.6,1.86,2.32,.15,.21,.36,.36,.52,.52-.1-.05-.15-.1-.26-.1,.52,.93,1.03,1.34,1.86,1.91l-.05,.15c-.46,.98-.93,1.86-1.29,2.89-.62,1.75-1.5,3.4-2.06,5.16-.31,.93-.41,1.91-.88,2.84-.41,.77-.93,1.5-1.29,2.32-.93,1.86-1.5,3.92-2.22,5.83-.72,2.01-1.6,3.92-2.47,5.88-.88,1.91-1.75,3.87-2.53,5.83-.36,.88-.62,1.86-1.19,2.63-.62,.82-1.5,1.08-2.42,1.39-3.82,.98-7.42,2.94-10.78,4.95h0Zm-44.23-56.71c-2.11-1.75-5-1.29-7.58-1.29-2.99,0-5.93,.57-8.92,.77s-5.98,.36-8.92,.26c-2.68-.05-5.31-.31-7.89-.82-1.29-.26-2.53-.41-3.87-.52-.82-.05-1.6-.31-2.01-1.08-.57-1.03-.41-2.58-.46-3.66s-.21-2.47,.26-3.51c.41-1.03,1.39-1.5,2.37-1.91,1.19-.46,2.37-.93,3.61-1.39,4.85-1.86,9.85-3.97,15.05-4.43,1.44-.1,2.89-.15,4.38-.21,1.24-.05,2.42-.36,3.66-.46,2.58-.26,5.1-.31,7.63-.88,.72-.15,1.13,.21,1.86,.36,.57,.1,1.13,.05,1.65,.05,1.13-.1,2.27-.21,3.4-.1,1.34,.1,2.73,.21,4.07,.41,1.19,.21,2.37,.52,3.61,.67,1.34,.15,2.63,.21,3.92,.52,.67,.15,1.65,.31,2.06,.93,.52,.82,.1,2.42,.05,3.35-.05,1.29-.15,2.58-.15,3.87,0,1.39,.21,2.78,.52,4.18,.21,.98,.62,2.17,.41,3.2-.1,.57-.52,.82-1.13,.72-.41-.05-.72-.46-1.13-.52-.72-.1,0,.46-.41,.93-.31,.36-.88,.26-1.34,.41-.46,.15-.93,.36-1.39,.57-1.03,.46-2.06,.77-3.09,1.24-2.22,1.08-4.38,2.42-6.5,3.71-.36-1.08-.62-2.68-1.34-3.56-.67-.77-1.65-1.19-2.37-1.8h0ZM249.73,102.2c.46-1.34,1.13-2.68,1.5-4.07,.15-.52,.15-1.19,.67-1.5,.41-.21,1.19-.1,1.6-.1h2.42c.41,0,.98-.1,1.24,.31,.26,.46-.15,1.24-.15,1.75,0,.72,.15,1.5,.36,2.17,.82,3.04,1.65,6.03,2.58,9.07-.93-.41-1.65-1.39-2.68-1.5-.67-.05-1.19,.31-1.8,.41-.52,.1-1.03,.1-1.55,.26-2.32,.57-4.49,1.75-6.86,2.17,.1-.88,.15-1.65,.41-2.53,.26-.72,.52-1.44,.72-2.17,.52-1.39,1.03-2.84,1.55-4.28h0Zm7.73-20.47c1.13-.52,2.27-1.96,1.19-3.14-.57-.62-2.01-.31-2.73-.15-1.03,.21-5.05,2.84-5.52,1.03-.31-1.19,.26-2.94,.77-3.97,.36-.67,.77-1.29,1.34-1.75,.57-.52,.82-.36,1.55-.31,1.19,.15,2.27-.21,3.04,.93,.15,.21,.15,.52,.52,.57,.26,.05,.41-.26,.62-.26,.41,0,.46,.26,.62,.57,.41,.82,.98,2.37,2.22,1.7s1.29-2.78,1.29-3.97c0-1.8,.1-3.61,.21-5.36,.05-1.44,.21-2.73,1.24-3.76,.98-1.03,1.75-2.42,2.94-3.2,1.34-.88,3.09-.77,4.59-.88,1.75-.15,3.61-.31,5.36-.15,1.8,.21,3.56,.26,5.36,.21,1.8-.1,3.56-.21,5.36-.26,1.7-.05,3.45,.1,5.16-.1,.67-.05,1.6-.31,2.06,.36,.52,.77,.46,2.17,.62,3.04-1.86-.36-4.85-1.19-5.57,1.39-.21,.77,.46,1.5,1.03,1.96,.88,.67,2.06,.67,3.09,.77,.57,.1,1.5,.05,1.86,.62,.31,.57,.15,1.6,.21,2.22,.15,2.53,.52,5.05,.77,7.58,.26,2.42,.46,4.9,.1,7.32-.21,1.24-.67,2.42-.77,3.66-.05,.77,.05,1.65-.62,2.17-.82,.57-2.22,.62-3.2,.82-1.29,.26-2.53,.62-3.76,.98-1.96,.57-4.38,.88-5.1,3.09-.77,2.37-1.34,4.79-2.06,7.17-.36,1.19-.88,2.27-1.44,3.45-.21,.46-.52,.93-.46,1.44s.41,1.03,.62,1.55c.46-.26,.93-.36,1.29-.72,.41-.36,.72-.88,1.03-1.29,.67-.88,1.13-1.65,2.11-2.27,.05,.46,.15,.88-.1,1.29-.15,.31-.52,.57-.72,.82-.62,.72-1.19,1.5-1.8,2.22-1.29,1.39-2.84,2.53-4.18,3.92-1.34,1.34-2.58,2.94-4.23,3.97-1.55,.98-3.25,1.8-4.9,2.68,1.44-3.25,.46-6.55-1.29-9.49-.77-1.34-1.75-2.63-2.68-3.92-.72-1.03-2.06-2.42-2.06-3.71,0-.72,.52-1.29,.82-1.91,.36-.62,.67-1.34,.98-2.01,.62-1.39,1.44-2.84,1.7-4.33,.21-1.34-.1-3.14-.98-4.23-.36-.41-.88-.36-1.34-.67s-.82-.72-1.19-1.08c-.41-.41-.98-.72-1.39-1.13-.46-.46-.77-1.03-1.08-1.55-.88-1.34-1.7-2.58-2.47-3.92h0Zm4.95-28.66c1.34,0,2.06,.77,2.68,1.86-.41,.67-1.55,2.68-2.47,1.86-.15-.15-.26-.46-.46-.62-.21-.15-.46-.26-.67-.36-.52-.21-1.08-.46-1.44-.93-.77-1.13,1.55-1.8,2.37-1.8h0Zm26.4,50.63c.26-.05,.98,.41,1.24,.52,.41,.21,.98,.36,1.39,.67s.52,.72,.77,1.13c.1,2.94,.26,5.88,.26,8.87l-.26-8.87c-.15,.82-.46,1.55-.46,2.37s.1,1.7,.21,2.58c.15,1.6,.31,3.2,.52,4.79,0,.93-.05,1.86-.15,2.78-1.19-1.65-2.32-3.3-3.51-4.9-1.03-1.44-2.42-1.55-4.07-1.65l3.25-6.55c.1-.31,.57-1.7,.82-1.75h0Zm191.48,5c1.75-.46,3.56-1.13,5.36-1.39,1.7-.21,3.25-.98,4.85-1.44,1.44-.41,2.94-.77,4.33-1.29,1.08-.36,2.27-.77,3.09-1.55,.88-.82,1.34-2.11,1.19-3.35-.21-1.39-1.24-1.6-2.42-2.01-6.08-2.06-12.22-3.3-18.56-4.12-3.25-.41-6.55-.93-9.85-.88-1.7,.05-3.4,.15-5.1,0-1.55-.1-3.09,.46-4.64,.15-1.55-.31-2.99,.1-4.59,.31-1.65,.21-3.35,.31-5,.36-1.55,.05-3.14,0-4.64,.41-1.44,.41-2.58,.67-4.07,.21,1.55-1.7,3.09-3.4,4.64-5.1,3.2-3.51,6.5-7.27,8.4-11.65,.82-1.86,1.24-4.59-.15-6.34-1.24-1.55-3.92-1.24-5.62-.98-2.22,.31-4.28,1.08-6.19,2.27-1.8,1.13-3.82,2.01-5.46,3.35-1.65,1.34-3.51,2.22-5.16,3.51-1.7,1.34-3.4,2.63-5.1,3.92-3.71,2.84-6.81,6.39-10.31,9.49-1.86,1.6-3.61,3.35-5.26,5.21-.77,.88-1.6,1.7-2.27,2.68-.57,.82-1.03,1.65-1.65,2.42-.72,.93-1.6,1.7-2.37,2.63-.67,.82-1.34,1.7-1.96,2.63-.67,.93-1.29,1.91-1.91,2.84-.36,.52-.67,1.34-1.34,1.24-.93-.1-1.5-.93-2.53-.36-.36,.21-.57,.52-.88,.77-.41,.36-.88,.52-1.34,.77-.98,.46-1.8,1.24-2.68,1.86-.93,.67-1.86,1.24-2.73,2.01-3.61,3.25-6.91,6.75-10.36,10.1-.82,.82-1.7,1.6-2.53,2.42-.67,.67-1.13,1.44-1.8,2.11-.36,.36-.82,.52-1.24,.88-.36,.31-.67,.77-.98,1.19-.77,.88-1.5,1.75-2.27,2.63-1.55,1.65-3.2,3.14-4.69,4.9-1.5,1.75-3.2,3.4-4.74,5.16-3.25,3.71-6.24,7.48-9.23,11.34-1.5,1.96-3.14,3.71-4.54,5.72-1.34,1.91-2.47,3.92-3.45,5.98-.31,.57-.67,2.32-1.7,1.7-.36-.21-.62-.88-.88-1.24-.31-.52-.62-.98-.93-1.5-1.34-2.17-2.78-4.28-3.87-6.6-2.06-4.43-4.12-8.82-5.83-13.4-.88-2.32-1.86-4.59-2.78-6.86-.98-2.27-1.7-4.59-2.63-6.86-1.86-4.49-4.33-8.76-6.81-12.94-2.27-3.87-4.64-7.84-7.78-11.03-1.65-1.7-2.94-3.66-4.69-5.26-.88-.82-1.8-1.6-2.68-2.42-.62-.62-1.19-1.5-1.96-1.86-.57-.26-1.13-.21-1.75-.21-.46,0-.98-.1-1.44-.1-.41,.05-.57,.41-.98,.46-.41,.1-.67-.1-.98-.31-2.01-1.39-4.74-1.96-7.01-2.78,1.44-.88,3.2-.93,4.79-1.29,1.34-.31,2.63-.88,3.76-1.7,2.47-1.86,2.89-4.79,3.3-7.68,.52-3.3,.93-6.81,.46-10.16-.41-3.25-.88-6.55-1.39-9.8-.26-1.6-.52-3.14-1.03-4.64-.36-1.24-.88-2.53-.82-3.87,0-.67,.05-1.65,.52-2.11,.36-.36,.88-.52,1.29-.88,.93-.82,1.65-1.75,2.22-2.84,.46-.88,1.19-2.17,.77-3.14-.46-1.08-1.96-1.29-2.99-1.55-2.99-.77-6.03-.67-9.07-1.08-1.44-.21-2.99-.62-4.49-.62s-2.89,.05-4.33,0c-3.14-.05-6.34-.15-9.49,.21-.82,.1-1.65,.15-2.47,.21-.67,.05-1.13,.36-1.8,.46-.36,.05-.93-.15-1.29-.15-.62-.05-1.29,0-1.91,.1-1.34,.26-2.37,1.08-3.71,1.39-1.03,.21-1.8,.77-2.37,1.7-1.34,2.32-1.39,5.52-1.55,8.09-.15,3.09,.1,6.14-.05,9.23-.05,.72-.1,1.03-.93,.98-1.08-.1-2.06-.41-3.2-.1-2.11,.57-3.45,2.47-4.28,4.38-.88,2.01-1.34,4.28-1.19,6.44,.1,1.91,.82,4.43,2.94,4.95,1.13,.31,2.27-.15,3.35-.52,1.03-.31,1.91-1.24,2.47,.05,1.13,2.58,2.22,4.9,4.02,7.17-1.65-.1-3.35-.26-5-.36-1.08-.05-2.63-.36-3.71,.05-.62,.26-.62,.67-1.08,1.08s-1.44,.26-2.01,.21c-1.8-.05-3.45-.36-5.26-.21-1.34,.15-2.53,.82-3.87,1.03-1.6,.31-3.25,.93-4.74,1.55-1.44,.57-2.84,1.19-4.33,1.65s-2.99,.98-4.43,1.6c-2.58,1.19-4.74,3.09-7.01,4.69-.62,.41-1.24,.77-1.8,1.29-.46,.41-.77,.93-1.19,1.34-.72,.67-1.55,.62-2.32,.98s-1.55,1.08-2.27,1.55c-.67,.46-1.29,.88-1.96,1.34-1.24,.82-2.42,1.86-3.76,2.53-2.47,1.24-4.38,3.2-6.39,5.1-2.17,2.01-4.54,3.82-6.65,5.88-2.06,2.11-3.97,4.33-5.67,6.75-1.75,2.53-3.2,5.26-4.85,7.84-.77,1.19-1.7,2.17-2.58,3.25-.46,.57-.88,1.13-1.24,1.7-.36,.52-.57,1.19-1.08,1.6-.98,.77-2.01,1.24-2.84,2.27-.93,1.13-1.7,2.42-2.47,3.66-1.55,2.47-2.99,5.05-4.33,7.68-.41,.77-.41,1.34-.46,2.17-.05,.67-.26,1.29-.36,1.91-.21,1.03-.05,2.11-.36,3.14-.15,.67-.62,.77-1.13,1.13s-.98,.77-1.44,1.24c-.93,.88-1.8,1.75-2.84,2.53-1.03,.82-2.06,1.6-2.99,2.53-.93,.98-1.75,1.96-2.78,2.78-2.27,1.8-4.38,3.87-6.6,5.72-2.32,1.96-4.38,4.12-6.5,6.24-2.17,2.22-4.49,4.33-6.81,6.44-.15-2.53-.31-5.05-.52-7.58-.21-2.73-.82-5.36-1.39-8.04-.46-2.37-.82-4.95-1.6-7.22-.57-1.6-1.65-2.89-3.3-3.25-.82-.21-2.11,.21-2.53-.72-.41-.93-.46-2.37-.62-3.35-.72-4.43,.72-9.33-1.13-13.56-.82-1.86-2.27-2.78-4.07-3.61-2.32-1.03-4.9-.77-7.32-1.29-1.13-.26-2.01-.82-3.2-.88s-2.37,0-3.51,.05c-1.24,.05-2.42-.21-3.61-.21-1.08,0-1.91,.72-2.94,.57-1.19-.21-2.11-.46-3.3-.15-1.03,.31-2.06,.41-3.14,.41-1.34,.05-2.68-.1-4.02,0-1.24,.05-2.42,.41-3.61,.57-2.58,.31-5.05,.62-7.58,1.29-2.47,.67-4.85,1.65-7.27,2.58-3.87,1.44-8.3,2.53-9.38,7.11-.57,2.53-.72,5.26-.41,7.84,.26,2.06,.72,4.38,1.96,6.14,1.29,1.86,3.51,2.42,5.57,3.09,2.37,.72,4.85,.88,7.27,1.29,2.53,.46,5.05,.82,7.63,.77s5.05-.72,7.63-.93c2.63-.21,5.26-.52,7.89-.77,1.75-.15,5.16-.67,6.03,1.34,.26,.62,.67,1.39,.15,1.96-.62,.67-1.13,1.34-1.7,2.11-.72,1.03-1.29,2.01-1.55,3.25-.21,1.24-.26,2.47-.26,3.71-.05,5.16,1.24,10.36,2.53,15.31,1.29,5.16,2.78,10.31,4.59,15.36,1.75,4.79,3.04,9.8,5.1,14.44,1.03,2.32,2.37,4.43,3.82,6.55,1.19,1.8,2.27,3.92,4.07,5.21,1.5,1.08,3.35,1.6,5.21,1.5,2.17-.15,4.28-1.5,6.19-2.47,4.64-2.32,8.87-5.52,13.04-8.61,2.01-1.5,3.82-3.2,5.93-4.49,2.06-1.29,4.18-2.42,6.5-3.09-1.96,4.07-3.71,8.25-5.77,12.27-2.01,3.97-3.71,8.09-5.57,12.17-.77,1.65-1.86,3.14-2.63,4.79-.82,1.91-1.7,3.82-2.53,5.72-1.55,3.51-3.2,6.96-4.59,10.52-.31,.82-.15,1.8-.57,2.47-.41,.72-.88,1.34-1.19,2.11-.67,1.65-1.24,3.35-2.01,5-1.7,3.61-2.78,7.53-4.43,11.19-1.65,3.66-3.14,7.37-4.59,11.14-.72,1.86-1.55,3.66-2.22,5.52-.62,1.7-1.19,3.45-2.22,5-2.22,3.35-3.92,7.01-5.62,10.67-.77,1.75-1.5,3.45-1.6,5.36-.1,1.75,.98,3.14,1.86,4.54-1.6,.77-3.04,1.8-4.59,2.63-1.7,.88-3.45,1.55-5.21,2.27-1.8,.72-3.56,1.44-5.36,2.17-1.55,.67-2.99,1.44-4.54,2.17-1.44,.72-2.73,1.6-4.12,2.47-1.5,.88-2.94,1.75-4.43,2.68-2.89,1.75-5.67,3.56-8.71,5.05-1.6,.77-3.14,1.55-4.74,2.37-1.29,.67-2.73,1.24-3.66,2.37-1.39,1.7-1.29,4.43,.05,6.14,.88,1.13,3.04,1.03,4.33,1.08,.88,0,1.8,0,2.68-.21,.72-.15,1.34-.52,2.06-.72,.82-.21,1.7-.15,2.53-.26,.82-.1,1.6-.26,2.42-.41,1.7-.36,3.45-.77,5.16-1.13s3.35-.72,5-1.19c.67-.21,1.39-.62,2.11-.57,.77,0,1.44,.05,2.22-.05,.77-.15,1.55-.36,2.37-.46,.72-.1,1.5,0,2.22-.1,.82-.15,1.6-.52,2.37-.72s1.5-.15,2.27-.15c-1.96,1.55-4.02,2.94-6.03,4.38-2.01,1.5-3.92,3.14-5.88,4.69-1.6,1.29-3.56,2.53-4.54,4.38-.77,1.5-.93,3.3-.62,4.95,.41,2.06,1.91,2.32,3.76,2.42,2.37,.15,4.23-.82,6.29-1.86,4.07-2.01,7.99-4.33,11.86-6.7,1.91-1.19,4.02-2.06,6.03-3.04,1.08-.52,2.17-1.03,3.2-1.55,.88-.41,2.01-1.24,2.99-1.13-2.68,5.52-5.46,10.98-7.78,16.65-.98,2.37-1.75,4.85-1.96,7.42-.15,1.8-.05,5.36,2.22,5.98,1.03,.26,1.91-.41,2.58-1.08,.98-.93,1.86-2.01,2.78-2.99,1.8-1.96,3.71-3.82,5.67-5.57,2.01-1.8,3.97-3.56,5.77-5.57,1.7-1.91,3.87-3.35,5.46-5.36,1.65-2.06,3.14-4.23,4.85-6.24,1.08-1.34,2.01-3.45,3.92-3.71,.26,1.6,1.65,2.99,2.58,4.28,2.11,2.84,4.64,5.21,7.27,7.53,2.37,2.11,4.95,3.92,7.94,5.05,1.96,.77,6.08,2.53,7.63,.15,.72-1.13,.36-3.35,.05-4.59-.36-1.75-1.24-3.35-1.96-4.95-1.55-3.25-3.25-6.34-5-9.49-.88-1.6-1.7-3.14-2.68-4.69-.82-1.34-1.96-2.63-2.37-4.12-.15-.62-.26-1.5-.05-2.11,.21-.67,.52-.57,1.08-.62,1.34-.21,.93-2.63,.77-3.61-.15-.88-.46-1.7-.77-2.47-.26-.67-.82-1.6-.82-2.37,.05-.72,.72-1.44,.98-2.06,.31-.72,.52-1.5,.77-2.27,1.03-3.51,2.42-6.91,3.25-10.47,.88-3.56,1.75-7.01,3.04-10.47,1.29-3.56,2.73-7.06,3.92-10.67,1.13-3.51,2.32-6.96,3.56-10.47,2.53-6.96,5.26-13.82,8.3-20.57,2.99-6.65,6.34-13.15,8.92-20,1.24-3.3,2.47-6.55,3.61-9.85,1.19-3.4,2.47-6.81,3.87-10.16,1.44-3.45,2.58-6.96,3.82-10.47,1.19-3.45,2.22-7.01,3.71-10.36,.36,.41,.72,.72,.98,1.19s.52,.93,.88,1.34c.67,.77,1.55,1.29,2.37,1.86,.52,.36,.93,.77,1.55,.88h.05c-.1,0-.21,0-.31,.05,.77,.52,1.5,1.03,2.27,1.55-.05-.15-.1-.26-.21-.41,.26,.41,.52,.82,1.03,.93h-.1c.36,.26,1.6,1.5,1.5,.15,.05,.21-.05,.36,.05,.62,.1,.21,.31,.46,.52,.62,.36,.41,.77,.72,1.19,1.03,.98,.72,2.06,1.34,3.04,2.06,.26,.21,1.24,1.34,1.55,1.34l1.86,1.6c-.26-.82-.46-1.65-.72-2.47l.52,1.8c.21,.67,.52,.93,1.03,1.39,.93,.82,1.8,1.65,2.73,2.42,1.7,1.39,3.71,2.53,5.57,3.76,.98,.67,2.01,1.39,2.94,2.11,.77,.62,1.75,.82,2.53,1.39,.98,.72,1.86,1.7,2.68,2.58,.77,.77,1.65,1.6,2.17,2.58,.62,1.08,.62,2.58,.77,3.76,.21,1.24,.36,2.47,.57,3.71,.36,2.53,.72,5.1,1.03,7.63s.67,5,.88,7.53c.21,2.53,.15,5.1,.46,7.63,.57,5.1,1.24,10.31,2.32,15.31,1.08,5.05,1.8,10.21,2.78,15.26,.52,2.63,1.03,5.21,1.55,7.84l.77,3.87c.21,1.08,.1,2.11,.31,3.2,.1,.57,.26,1.13,.26,1.75,0,.57-.36,1.08-.36,1.6-.05,.72,.62,1.86,1.03,2.42,.62,.88,1.44,1.65,2.11,2.42,.72,.77,.98,1.08,.72,2.17-1.08,4.64,1.65,8.51,4.59,11.75,3.25,3.61,6.44,7.06,10.16,10.16,1.96,1.65,3.76,3.4,5.62,5.1,1.8,1.65,3.71,2.94,5.77,4.23,2.11,1.29,4.33,2.22,6.55,3.35,2.17,1.08,4.23,2.17,6.55,2.94,2.17,.77,4.38,1.44,6.5,2.37,1.65,.77,3.76,.72,5.41,0,1.13-.46,2.06-1.34,3.09-2.01,.93-.62,1.91-1.24,2.89-1.8,1.6-.93,3.2-2.01,3.92-3.87,.82-2.17,.1-4.74-.36-6.91-.46-2.22-1.44-4.28-2.68-6.19-1.24-2.01-2.78-3.71-4.18-5.62-1.44-1.91-2.78-3.97-4.33-5.83-1.5-1.86-3.09-3.66-4.85-5.31-1.7-1.7-3.2-3.56-4.79-5.36-.36-.41-.98-.88-1.03-1.5-.05-.52,.31-.93,.46-1.39,.36-.93,.26-1.91,.26-2.89,0-.46,0-.93,.26-1.39,.21-.41,.62-.57,.77-.98,.15-.36,.1-.88,.15-1.24,.1-.52,.31-.88,.52-1.34,.41-1.19-.1-2.58-.31-3.76-.21-1.13-.41-2.22-.62-3.35-.46-2.42-.77-4.79-1.55-7.17-1.55-4.74-3.04-9.43-3.14-14.49-.05-2.53-.77-4.95-1.34-7.37-.62-2.58-1.24-5.16-1.91-7.73-1.24-4.95-2.68-9.8-3.92-14.74-1.24-4.9-2.37-9.85-3.87-14.69-1.5-4.9-3.61-9.49-5.83-14.13-1.08-2.22-2.27-4.12-3.82-6.03-1.65-1.96-3.3-3.87-5-5.83-3.4-3.87-6.81-7.73-10.21-11.6-1.7-1.91-3.45-3.71-5.46-5.36-1.8-1.44-4.23-2.63-4.79-5-.15-.67-.26-1.34-.46-2.01-.1-.36-.41-.98-.36-1.39,.1-.82,1.65-1.13,2.22-1.44,2.11-.98,4.28-1.91,6.39-2.99,1.13-.57,2.17-1.29,3.25-2.01,.93-.62,1.96-.77,2.94-1.08,2.27-.72,4.38-1.7,6.44-2.84,2.17-1.13,4.33-2.27,6.44-3.56s3.76-2.84,5.57-4.54c.82-.77,1.39-.36,1.96,.46,.67,.98,1.44,1.96,2.17,2.94,.36,.46,.62,.98,1.08,1.29,0,0,.05,0,.05,.05-.1-.05-.15-.05-.26-.1,.15,1.24,1.08,2.06,1.91,2.94-.1-.21-.15-.41-.21-.62,.21,.57,.52,.98,.88,1.5,.77,.98,1.6,1.86,2.47,2.78,.46,.46,.93,.93,1.39,1.34,.21,.15,.36,.36,.57,.52,.31,.31,.46,.36,.77,.52,.62,.31,.77,.77,1.34,1.19,.82,.62,1.86,.98,2.73,1.6,.72,.46,1.29,1.44,2.11,1.65,.31,.05,.52,0,.72,.26,.31,.31,0,.31,.46,.41,.26,.05,.52-.1,.77,0s.52,.31,.72,.46c.52,.36,1.03,.72,1.5,1.08,.93,.67,1.8,1.34,2.68,2.01,1.8,1.34,3.4,2.89,5.21,4.23,.93,.72,1.91,1.19,2.89,1.8,.82,.52,1.5,1.19,2.27,1.75,.93,.67,2.01,.98,2.94,1.6s1.86,1.24,2.84,1.75c2.11,1.19,4.28,2.27,6.55,3.2,2.27,.93,4.64,1.65,7.11,1.8,2.53,.1,4.9-.52,7.22-1.44s4.54-1.96,6.7-3.09c2.11-1.13,4.07-2.47,6.14-3.71,2.06-1.19,4.07-2.47,6.03-3.82,1.91-1.29,3.66-2.73,5.72-3.82s3.87-2.47,5.83-3.71c2.01-1.29,3.97-2.63,5.93-3.92,4.12-2.73,8.25-5.57,12.12-8.61,1.86-1.44,3.71-2.99,5.36-4.69,1.75-1.86,3.87-3.4,5.77-5.05l5.57-5.36h0l-5.57,5.41c.88-.15,1.44-.72,2.17-1.29s1.5-1.19,2.22-1.75c1.08-.88,2.32-1.75,2.17-3.3,.46-.41,.93-.88,1.44-1.24,.82-.67,1.75-1.03,2.63-1.6,1.75-1.19,3.3-2.68,4.95-3.97,.72-.57,1.39-1.03,1.5-2.01,.1-1.08,0-2.22-.05-3.3,0-.82-.26-2.01,.05-2.78s1.39-1.13,2.06-1.5c1.96-1.08,3.87-2.22,5.83-3.25,1.91-1.03,3.61-1.75,5.77-1.96,.98-.1,1.86-.21,2.84-.36,.98-.15,1.91,.15,2.84,.31,2.17,.41,4.38,.62,6.55,1.03s4.33,.93,6.5,1.5c2.17,.52,4.33,1.08,6.5,1.5,1.13,.21,2.27,.31,3.35,.67,.82,.26,1.6,.62,2.47,.82,2.06,.46,4.12,.52,6.14,1.19s4.02,1.03,6.14,1.34c1.08,.15,2.17,.36,3.25,.57,.67,.15,1.24,.21,1.91,.05,1.39-.31,2.47-1.44,2.94-2.78,1.19-3.66-1.13-7.58-3.51-10.21-2.58-2.78-5.77-4.74-8.82-6.91,1.24-.15,2.42,.05,3.66,.05,1.03,0,2.06-.05,3.09,.05,2.32,.1,4.64-.57,6.96-.62,3.14-.05,7.01-.72,7.84-4.28,.77-3.35-2.78-6.34-5.31-7.84-1.6-.98-3.25-1.86-4.85-2.89-1.7-1.08-3.82-1.75-5.67-2.47-1.91-.77-3.82-1.5-5.83-2.01-1.91-.52-3.82-.77-5.67-1.5,1.65-.72,3.45-.88,5.26-1.24,2.22-.67,3.92-1.08,5.67-1.55h0Z"/>
    <path class="cls-3" d="M490.95,239.18c-.21,.77-.62,1.19-1.44,1.34-1.29,.31-2.68,.36-4.02,.52-2.37,.31-4.85,.41-7.22,.98-2.22,.52-4.38,1.34-6.39,2.42,.67-3.09,1.39-6.14,1.13-9.33-.21-2.32-.26-5.88-2.63-7.22-.57-.31-1.44-.21-2.01-.21-.77-.05-1.6-.1-2.37-.1-1.55-.1-3.14-.26-4.69-.41-3.09-.31-6.14-.67-9.23-1.13-.52-.05-1.44,0-1.75-.46-.26-.31-.15-.82-.1-1.19,.05-1.24,0-2.53-.15-3.76-.36-2.73-1.08-5.41-1.96-8.04-.41-1.34-.88-2.63-1.29-3.97-.21-.62-.67-1.5,0-1.96,.41-.31,1.19-.26,1.7-.41,.62-.15,1.19-.36,1.75-.52,1.39-.46,2.73-.93,4.12-1.39,5.21-1.75,10.47-3.35,15.67-5.16,.72-.26,1.44-.52,2.17-.77,.31-.1,.88-.36,1.19-.26,.41,.15,.31,.62,.62,.88,.26,.21,.82,.26,1.13,.41,.82,.46,1.34,1.29,1.96,1.96,.82,.82,1.75,1.6,2.58,2.47,3.3,3.51,5.72,7.68,7.73,12.01,.57,1.13,.93,2.37,1.24,3.61,.31,1.19,.72,2.32,.93,3.51,.41,2.78,.46,5.67,.77,8.51,.36,2.42,1.13,5.31,.57,7.68m-20.78-6.34c0,1.86-.1,3.76-.52,5.57-.41,1.91-1.19,3.71-1.86,5.52-.62,1.7-1.13,3.45-1.91,5.1-.72,1.65-1.65,3.14-2.27,4.85-1.19,3.51-3.3,6.55-4.74,9.9-1.5,3.45-3.14,6.75-5,10-.88,1.55-1.7,3.25-2.84,4.69-.57,.72-1.19,1.39-1.8,2.01-.57,.52-.82,.1-1.5,.26-.98,.15-1.5,1.44-2.11,2.11-1.19,1.24-2.42,2.47-3.76,3.61s-2.84,2.11-4.23,3.2c-1.34,1.08-2.68,2.01-4.18,2.78-2.99,1.55-6.44,3.4-9.9,3.25-1.6-.05-2.42-1.13-3.09-2.47-.72-1.44-.46-3.2-.36-4.79,.15-1.91,.62-3.56,1.6-5.16,.98-1.6,0-2.58-.98-3.87-2.22-2.94-5.16-5.21-7.84-7.68-1.39-1.29-2.73-2.58-4.12-3.87-.77-.72-1.5-1.44-2.27-2.17-.57-.52-1.08-.88-1.29-1.6,1.5-.82,3.09-1.5,4.49-2.53,2.84-2.06,5.41-4.59,8.09-6.86,1.29-1.08,2.32-2.47,3.35-3.76,.98-1.29,2.11-2.47,2.99-3.87,1.86-2.99,3.97-5.93,5.41-9.07,.72-1.6,1.08-3.2,1.5-4.9,.21-1.03,.52-2.01,.77-3.04,.15-.67,.21-1.75,.62-2.32,.77-.98,3.2,.62,4.07,.88,1.65,.52,3.4,.77,5.16,1.03,3.66,.57,7.32,1.03,10.98,1.75,1.91,.36,3.82,.77,5.72,.98,1.86,.21,3.76,.1,5.62,.05,.41,0,.88,.05,1.19-.31,.15-.21,.05-.46,.31-.67,.31-.26,.72-.1,1.13-.1,.77,.1,1.5,.1,2.27,.21,.31,.05,.98,0,1.24,.15,.15,.21,.05,.72,.05,1.13m-52.69,50.22c-.88,1.75-1.39,4.23-1.39,6.19,0,1.03,.1,2.11,.36,3.14,.21,.88,.72,1.91,.52,2.84-2.22-1.03-4.38-2.11-6.65-3.04-1.96-.82-3.4-2.22-5.05-3.51-1.75-1.44-3.3-2.99-4.95-4.49-1.8-1.6-3.66-3.14-5.46-4.69-3.25-2.78-5.93-5.93-8.61-9.28-2.32-2.94-5.67-6.7-5.52-10.67,.05-1.86,.21-3.92,1.13-5.62,.77-1.39,2.11-2.89,3.4-3.82,1.24-.88,2.42,1.34,3.09,2.11,1.5,1.7,2.99,3.35,4.49,5,2.84,3.14,5.57,6.44,8.66,9.38,3.09,2.94,6.29,5.83,9.64,8.51,1.7,1.34,3.51,2.58,5.05,4.12,.57,.57,1.65,1.19,2.01,1.86,.41,.67-.41,1.29-.72,1.96m76.41-43.56c-.46-.05-.46,0-.46-.46-.05-.72,.15-1.55,.26-2.27,.36-3.4,.15-6.96-.1-10.41-.57-6.7-1.96-13.3-5.46-19.08-1.6-2.68-3.45-5.21-5.72-7.37-1.03-.98-2.06-2.06-3.25-2.94-.57-.41-1.44-.67-1.96-1.08-.31-.26-.41-.72-.67-1.03-.98-1.24-2.06-1.55-3.61-1.39-1.6,.15-3.3,.62-4.85,1.08-3.3,.93-6.44,2.47-9.64,3.71-3.2,1.24-6.39,2.53-9.54,3.87-1.39,.57-3.04,1.03-4.28,1.91-.72,.52-.98,1.19-.88,2.06,.26,3.14,1.44,6.24,2.32,9.23,.93,3.2,1.7,6.5,1.96,9.85-3.25-.26-6.55-.46-9.8-.88-1.65-.21-3.25-.36-4.9-.62-.82-.1-1.24-.41-1.91-.88-.62-.36-.88-.05-1.13,.52-1.34,3.04-1.86,6.34-3.25,9.33-.62,1.34-1.44,2.63-2.11,3.97-.72,1.44-1.6,2.89-2.53,4.23-.41,.62-.98,1.13-1.44,1.7-.41,.57-.72,1.19-1.13,1.75-.82,1.19-1.86,2.22-2.84,3.25-1.03,1.03-2.01,2.06-2.99,3.14-.98,1.03-2.11,1.91-3.14,2.89-.98,.93-1.8,1.96-2.78,2.89-.93,.88-1.39,2.11-2.42,2.89-.57,.41-1.13,.77-1.7,1.19-.46,.36-.93,.98-1.55,.88-.72-.15-1.29-1.08-1.7-1.6-.57-.62-1.13-1.29-1.75-1.91-2.27-2.47-4.64-4.9-6.91-7.32-1.13-1.19-2.37-2.27-3.45-3.51-.77-.88-2.11-1.55-3.2-.93-1.13,.62-2.47,1.13-3.4,2.06-.98,.98-1.75,2.32-2.58,3.45-.82,1.19-1.19,2.63-1.39,4.02-.26,1.5-.46,3.04-.36,4.54,.21,2.94,.77,6.19,2.42,8.61,.82,1.19,1.91,2.06,2.89,3.04,1.08,1.08,1.8,2.42,2.68,3.66,1.75,2.47,3.92,4.69,6.14,6.81,1.03,.98,2.27,1.86,3.3,2.84,1.13,1.08,2.27,2.01,3.56,2.94s2.37,2.11,3.56,3.14c1.24,1.08,2.47,2.11,3.82,3.04,2.58,1.8,5.16,2.94,8.15,3.87,3.3,.98,6.44,2.27,9.74,3.3,1.55,.52,3.09-.21,4.59-.67,1.5-.52,2.99-1.13,4.43-1.91,2.84-1.6,5.57-3.45,8.35-5.16,2.89-1.75,5.31-3.76,7.53-6.34,2.11-2.42,4.33-4.9,6.29-7.48,3.92-5.26,6.29-11.5,9.18-17.37,1.55-3.09,3.09-6.19,4.38-9.38,.62-1.6,1.19-3.2,1.86-4.79,.26-.67,.52-.93,1.24-1.03,.82-.15,1.7-.21,2.58-.31,3.35-.41,6.65-.98,9.95-1.55,3.09-.52,6.19-1.08,8.97-2.63,.57-.31,1.29-.72,1.6-1.34,.15-.26,.52-1.7,.31-1.96-.21,0-1.03,0-1.24-.05M356.5,27.59c1.08-.57,2.17-1.08,3.25-1.6,2.32-1.13,4.59-2.32,6.91-3.4,1.03-.46,2.17-.77,3.25-1.19,1.13-.41,2.27-.98,3.35-1.55,2.32-1.13,4.69-2.11,7.11-2.99,.72-.26,1.5-.57,2.22-.82,.57-.21,1.24-.62,1.86-.67,.93-.1,1.65,.82,2.27,1.44,3.45,3.09,5.88,7.73,7.37,12.06,.82,2.37,1.19,4.85,1.6,7.32,.46,2.53,.93,5,.93,7.58s.31,5.21,.15,7.78c-.05,.98,.15,2.73-.41,3.56-.57,.88-1.91,1.08-2.78,1.44-4.79,1.75-9.59,3.61-14.49,5.16-5.05,1.6-10.16,3.2-15.21,4.85,.21-1.44,.46-2.89,.62-4.33,.15-1.34,.05-2.78,.05-4.12,0-2.99-.1-5.98-.72-8.92-1.08-5.36-2.89-10.62-5.83-15.26-.67-1.08-1.55-2.06-2.37-3.04-.31-.36-1.29-1.19-1.24-1.7,.1-.82,1.6-1.34,2.11-1.6m57.64-.57c1.13,.05,1.8,.31,1.91,1.5,.1,1.5,.1,3.04,.15,4.54,.1,2.89,.21,5.83,.15,8.71-.15,5.1-.67,10.16-2.22,15-.77,2.37-1.65,4.64-2.63,6.91-.93,2.22-2.27,4.18-3.45,6.24-.57,1.03-1.24,1.86-2.01,2.68-.36,.41-.57,.62-1.08,.67-.57,.05-1.24-.05-1.75-.1-2.58-.21-5.16-.46-7.73-.57-2.58-.1-5.1,0-7.68-.15-1.19-.05-2.32-.46-3.51-.62-1.19-.21-2.37-.26-3.56-.41-.62-.05-.62,.05-.67-.46-.05-.31,.05-.67,.05-.98,.05-.57,.05-1.19,.1-1.75,.05-.52-.05-1.44,.15-1.96,.21-.46,.62-.52,1.03-.62,2.37-.67,4.69-1.44,6.96-2.37,2.32-.93,4.69-1.8,7.01-2.84,.98-.41,2.11-.82,2.89-1.65,.62-.67,.98-1.55,1.24-2.37,1.5-4.69,1.03-10.16,.57-15-.46-5-1.19-10.1-2.99-14.8,5.57,.05,11.34,.15,17.06,.41m-64.14,4.28c1.6,.62,2.58,2.01,3.51,3.35,1.13,1.65,2.27,3.35,3.14,5.21,1.91,3.87,3.14,8.09,3.87,12.27,.67,4.02,1.03,8.51,.26,12.58-.21,1.08-.77,1.96-1.08,2.99-.21,.67-.05,1.7,.1,2.37,.26,.98,1.19,.67,1.96,.46,1.13-.21,2.27-.46,3.35-.72,4.23-.88,8.46-2.47,12.73-2.78-.36,1.13-.57,2.17-1.29,3.2-.67,.93-1.6,1.7-2.01,2.84-.31,.93-.41,2.22-.05,3.14,.36,.98,1.24,.98,2.11,1.08,2.58,.31,5.1,.72,7.68,.88,.57,.05,1.13,.1,1.65,0,.46-.1,.77-.21,1.19-.15,.57,.1,1.13,.41,1.75,.46,.57,.05,1.19,.05,1.75,0,2.17-.1,4.28,.15,6.44-.05,.62-.05,1.8-.41,2.42-.05s.15,1.13,.46,1.7c.41,.72,1.8,.36,2.47,.31,.98-.05,1.8-.21,2.68-.67,1.75-.93,3.35-2.11,4.64-3.61,1.34-1.55,2.32-3.4,3.3-5.21,1.03-1.91,2.01-3.76,2.78-5.77,.77-2.06,1.55-4.18,2.01-6.34,.46-2.17,.72-4.33,1.13-6.55,.41-2.27,.52-4.59,.62-6.86,.1-2.37,.15-4.69,0-7.11-.15-2.32-.41-4.64-.67-6.96-.05-.62-.05-1.19-.1-1.8-.05-.41-.26-.77-.31-1.19-.05-.77,.67-1.29,.67-2.17-.05-1.96-2.11-2.68-3.61-3.14-2.01-.62-4.23-.98-6.29-.82-4.49,.31-9.07,.36-13.3,2.01-2.22-3.76-4.23-7.84-7.84-10.52-.41-.31-.82-.52-1.13-.93-.21-.36-.31-.77-.62-1.08-.72-.82-1.65-.93-2.68-.72-2.27,.46-4.38,.98-6.55,1.86-.93,.36-1.96,.57-2.89,.93-.93,.36-1.8,.82-2.68,1.24-1.91,.93-3.92,1.75-5.83,2.73-3.87,1.91-7.68,3.92-11.24,6.39-1.7,1.19-3.66,2.42-5.16,3.92-.62,.67-.93,1.5-.82,2.42,.26,.98,.72,.62,1.44,.88m-252.88,7.37c.21-2.47,.1-4.9,.31-7.37,.15-2.32,.62-4.69,1.08-7.01,.46-2.32,1.29-4.38,2.27-6.55,.52-1.19,1.03-2.37,1.55-3.61,.31-.72,.52-1.5,1.39-1.7,1.13-.26,2.47-.05,3.61-.1s2.32-.1,3.45-.21c2.53-.21,5-.57,7.53-.88,2.42-.26,4.79-.41,7.17-.88,1.24-.26,2.42-.57,3.66-.82,.93-.21,2.17-.77,3.09-.57-1.13,2.58-1.5,5.31-1.5,8.09,0,1.08-.15,1.55-1.29,1.5-1.44-.1-2.84-.21-4.28-.41-2.68-.31-5.31-.77-7.99-1.24-1.24-.21-2.47-.52-3.71-.82-.88-.21-1.24,.15-1.55,.98-.21,.57-.26,.82-.82,1.19-.46,.26-.88,.52-1.29,.82-.72,.57-1.34,1.24-1.91,2.01-1.19,1.65-1.96,3.66-2.63,5.57-1.75,4.85-2.63,10.05-2.78,15.21-.1,2.63-.52,5.16-.52,7.78,0,1.13,.26,2.63-.67,3.45s-2.17,1.39-3.2,2.06c-.93-2.63-1.13-5.41-1.19-8.2-.05-2.78,0-5.52,.21-8.3m38.92-13.92c1.13,.31,2.32,.57,3.45,.82-1.96,4.74-1.91,9.95-2.06,14.95-.05,2.27,0,4.49,.21,6.75s.72,4.49,1.19,6.75c.1,.52,.36,1.29,0,1.75-.36,.52-1.55,.77-2.06,.98-2.01,.93-4.02,1.91-6.08,2.73-2.11,.82-4.28,1.34-6.29,2.27s-4.02,1.8-6.08,2.53-4.18,1.29-6.14,2.17c-1.86,.88-3.4,2.06-5,3.35-.98-2.99-1.34-6.08-1.5-9.23-.15-2.99-.41-6.14-.1-9.18,.15-1.39,.15-2.63,.1-4.02,0-1.24,.26-2.42,.36-3.66,.21-2.68,.21-5.36,.57-8.09,.67-5.05,2.06-10.47,4.85-14.8,.15-.26,.36-.72,.57-.93,.41-.36,.26-.26,.82,0,.52,.26,.98,.52,1.5,.77,1.08,.46,2.27,.67,3.4,1.03,1.24,.36,2.42,.93,3.71,1.13s2.58,.21,3.82,.41c.72,.1,1.34,.36,2.01,.52,.57,.15,1.08,.1,1.7,.15,1.13,.1,2.22,.41,3.35,.52,1.34,.21,2.47-.05,3.71,.31m-41.66,21.91c.41,3.09,1.24,6.14,2.42,9.02,.41,.93,.82,2.22,1.96,2.47,1.03,.26,2.27-.52,3.25-.77,.77,4.54,1.08,9.18,3.09,13.4,.26,.52,.57,1.5,1.13,1.86,.52,.36,1.19,0,1.7-.21,2.22-.82,4.54-1.39,6.86-1.96,1.13-.31,2.27-.52,3.4-.93,.93-.31,1.8-.72,2.73-.88,2.01-.36,3.87-1.03,5.77-1.7,4.02-1.44,8.04-2.68,11.75-4.85,1.75-1.03,3.61-2.01,5.26-3.25,1.34-1.03,2.84-2.53,2.17-4.33-.21-.57-.72-1.44-1.39-1.65-.57-.15-1.13,.36-1.65,.52-.82,.21-.62-.46-.72-1.13-.05-.52-.1-1.03-.21-1.5-.1-1.08-.26-2.11-.36-3.2-.41-4.38-.21-8.82-.21-13.2,0-2.22,.52-4.12,1.03-6.29,.26-1.13,.52-2.27,.77-3.4,.15-.62,.31-1.34,.1-1.96-.41-1.44-2.47-1.8-3.66-2.22-1.03-.36-2.11-.67-3.14-.88-.57-.1-2.17,0-2.53-.52-.36-.52,.05-2.06,.1-2.68,.05-1.08,.15-2.17,.31-3.2,.21-1.7,.21-3.3-1.19-4.59,.88-.67,1.44-2.11,.21-2.78-1.44-.72-3.35-.82-4.85-.46-1.65,.41-3.45,.41-5.16,.62-1.8,.21-3.61,.41-5.41,.67-3.09,.41-6.24,.46-9.33,1.08-1.55,.31-3.04,.57-4.59,.77-1.6,.26-2.58,.46-3.51,1.8-1.8,2.58-3.51,5.16-4.49,8.15-.98,2.84-1.39,5.83-1.7,8.76-.31,3.2-.36,6.39-.31,9.59,0,3.35-.05,6.6,.36,9.8M29.33,173.14c.21-.31,.72-.41,1.03-.52,.46-.21,.88-.41,1.34-.67,2.17-1.24,4.28-2.53,6.24-4.02,.46-.36,1.7-1.7,2.37-1.5,.36,.1,.52,.67,.67,.98,.26,.52,.52,.98,.82,1.44,1.19,1.86,2.63,3.56,4.28,5.05,3.04,2.78,6.55,4.59,10.78,4.79-2.73,3.71-5.31,7.53-8.4,10.93-1.55,1.7-3.25,3.25-4.9,4.95-.26,.26-.41,.46-.77,.62-.36,.15-.67,.21-.98,.52-.52,.52-.57,1.24-.41,1.91-2.89,.1-5.98-1.19-8.61-2.22-1.55-.62-3.04-1.29-4.49-2.11-.98-.57-2.06-1.19-2.78-2.06,2.63-1.39,5.31-2.73,7.84-4.33,1.7-1.08,4.74-2.37,4.54-4.9-.05-.41-.21-.88-.52-1.08-.52-.31-.62,.05-1.08,.15-.77,.15-1.65-.82-2.22-1.29-1.55-1.19-3.09-2.47-4.02-4.18-.31-.52-1.08-1.86-.72-2.47m-16.03,22.27c.41-1.39-1.55-2.47-2.42-3.14-1.34-1.03-2.22-2.11-3.14-3.51-3.45-5.46-4.69-12.17-4.43-18.56,.1-1.75,.26-3.56,.31-5.31,0-.93-.05-1.8,.15-2.68s.41-1.7,.62-2.58c.41-1.7,.62-3.45,1.13-5.16,.46-1.55,1.08-3.09,1.86-4.54,.52-.98,.98-2.32,2.27-2.17,1.65,.26,3.2,1.08,4.79,1.5,1.75,.46,3.51,.88,5.31,1.29,1.7,.41,3.4,.98,5.1,1.34,.93,.21,1.8,.26,2.73,.26,.41,0,1.13-.05,1.13,.52,.05,.62-.88,1.24-1.24,1.6-.52,.52-.93,1.03-1.24,1.7-.67,1.65-1.34,3.35-1.6,5.1-.26,1.7-.21,3.51-.21,5.26-.05,3.51,.46,6.86,1.7,10.16,1.13,2.99,2.94,5,5.36,7.01-2.53,1.29-5.1,2.53-7.63,3.82-2.32,1.13-4.64,2.11-6.6,3.82-.82,.67-1.75,1.5-2.32,2.42-.72,1.13,.31,1.91,1.39,1.44,1.19-.52,2.37-1.08,3.51-1.6,.77-.36,2.01-1.34,2.89-1.29,.72,0,1.03,.98,1.34,1.5,.52,.82,1.19,1.6,1.91,2.27,1.55,1.44,3.35,2.63,5.26,3.56,2.11,.98,4.33,1.7,6.65,2.06,1.24,.21,2.53,.31,3.76,.26,.93-.05,2.27-.05,3.14-.52,.72-.41,.36-1.24,1.08-1.65,.77-.46,1.6-.77,2.32-1.24,1.75-1.19,2.78-2.68,3.82-4.43,2.37-4.12,5.26-7.89,7.01-12.32,.41-1.03,.67-2.27,1.34-3.2,.46-.62,1.44-.98,1.55-1.75s-.21-2.47-.98-2.84c-.88-.41-2.17-.41-3.14-.62-4.18-.98-8.09-2.47-11.45-5.26-.82-.67-1.65-1.44-2.37-2.22-.57-.57-1.13-1.19-1.03-2.06,.1-.77,.72-1.91-.57-2.11-.82-.15-2.01,.31-2.68,.72-2.06,1.29-3.97,2.89-5.98,4.33-1.8,1.29-3.66,2.58-5.46,3.82,.21-3.04,.1-6.29,.82-9.23,.36-1.44,.98-2.78,1.75-4.07,.82-1.29,1.44-2.63,2.17-3.97,.41,.21,1.03,.72,1.39,.15,.21-.36,.05-1.39,0-1.8-.62-3.25-5.52-3.56-8.04-4.12-3.61-.77-7.27-1.75-10.93-2.32-1.7-.26-3.4-.31-5.1-.41-.88-.05-1.91-.26-2.42,.62-.15,.26-.15,.57-.31,.77-.15,.15-.57,.36-.77,.52-.57,.46-1.03,.98-1.5,1.6-.88,1.19-1.5,2.58-2.06,3.92-1.39,3.3-2.22,6.75-2.63,10.26-.46,3.61-.77,7.32-.52,10.98,.41,6.7,2.27,13.51,6.5,18.87,.98,1.24,2.01,2.22,3.4,2.94,.82,.26,2.94,1.55,3.3,.31m48.05,78.78c-1.29,1.7-2.63,3.35-3.76,5.1-1.19,1.8-2.32,3.61-3.45,5.41-1.13,1.75-2.37,3.45-3.25,5.31-.52,1.08-.57,2.53-1.96,2.47-1.86-.05-3.66-.62-5.26-1.5-3.3-1.75-6.03-4.23-8.09-7.32-2.11-3.25-3.82-6.91-5-10.57-.67-2.01-1.19-4.12-1.7-6.19-.26-1.08-.52-2.11-.52-3.2,0-.46,.05-.98,.05-1.44s.26-1.24-.26-1.29c.15-1.29,.31-2.63,.46-3.92,.1-.93,.1-2.01,.93-2.63,.77-.62,2.01-.62,2.94-.82,1.13-.26,2.22-.57,3.35-.88,2.27-.67,4.43-1.6,6.6-2.53,1.08-.46,2.17-.93,3.2-1.5,.82-.46,1.44-1.19,2.01-.1,3.92,7.48,6.81,15.88,13.2,21.65,.52,.46,1.39,1.03,1.44,1.8,.21,.88-.52,1.6-.93,2.11m5.16-5.26c-.93-.62-2.01-.72-2.94-1.29-1.03-.67-1.75-2.17-2.47-3.14-1.7-2.37-3.45-4.74-5-7.22-1.39-2.27-2.68-4.59-4.02-6.86-.67-1.19-1.39-2.32-2.22-3.4-.36-.46-1.24-2.11-1.96-2.01-.36,.05-.36,.41-.62,.52-.15,.05-.26,0-.41,0-.52,.05-1.03-.21-1.55-.15-1.29,.1-2.63,.67-3.87,1.03-2.53,.77-4.95,1.86-7.48,2.73-2.47,.88-5.26,1.44-7.53,2.84-.88,.52-1.91,1.39-1.03,2.47,.31,.41,.77,.41,1.13,.72,.31,.26,.15,.41,.1,.82l-.1,.77c-.41,2.63-.72,5.26-.36,7.89,.36,2.68,.93,5.36,1.7,7.94,2.37,8.2,6.6,17.94,14.95,21.55,1.96,.82,3.87,1.03,5.93,1.44,.67,.1,1.19,.41,1.75,.72,.26,.15,.62,.36,.93,.31,.77-.1,1.39-1.29,1.7-1.8,1.34-2.11,2.84-4.07,4.23-6.14,.72-1.08,1.39-2.17,1.96-3.3,.36-.67,.57-1.75,1.5-1.75l.77,1.03c.1,.15,.26,.31,.31,.41,.21,.36,.15,.1,.1,.57-.1,.57-.62,1.24-.98,1.65-1.96,2.63-4.02,5.26-6.08,7.84-2.01,2.53-4.07,5.05-6.44,7.27-.46,.46-.98,.98-1.7,1.03-.67,.05-1.34-.31-2.01-.41-1.39-.26-2.84-.31-4.18-.72-.72-.21-1.29-.62-2.01-.67-.62-.05-1.03-.15-1.6-.46-1.24-.72-2.58-1.13-3.82-1.86-2.53-1.44-5.21-3.56-7.06-5.83-.98-1.19-1.75-2.47-2.73-3.66-.93-1.13-1.86-2.27-2.63-3.51-1.6-2.42-2.84-5.1-3.82-7.84-.52-1.44-.77-2.37,.52-3.4,1.19-.98,2.27-2.01,3.25-3.2,.46-.57,2.63-2.68,1.03-3.04-.88-.21-2.27,1.29-2.94,1.86-1.08,.88-2.11,1.7-3.4,2.37-1.39,.72-1.44,1.6-1.39,3.09,.05,3.04,1.19,6.03,2.37,8.76,1.19,2.84,2.73,5.57,4.54,8.09,3.51,4.79,7.37,9.64,12.79,12.37,2.68,1.34,5.57,2.01,8.51,2.37,1.75,.21,3.51,.26,5.26,.21,.72,0,1.7,.1,2.42-.15,.57-.21,.67-.62,.88-1.13,.52-1.24,1.8-1.91,2.68-2.89,.93-1.08,1.91-2.06,2.89-3.09,2.06-2.22,3.45-4.9,5.1-7.42,.93-1.39,1.91-2.78,2.73-4.23,.67-1.19,1.44-2.78,1.7-4.12,.21-1.08-.67-2.63-1.86-2.68-.62-.05-1.13,.46-1.75,.52-.21,0-.82-.1-1.03,0,.98-2.42,2.47-4.69,3.61-7.06,.62-1.34,1.24-2.68,1.8-4.02,.46-1.19,.93-2.01-.15-2.73m16.03-192.15c1.96,4.54,5.1,8.15,8.35,11.81,1.7,1.96,3.45,3.71,5.52,5.26,1.91,1.44,3.87,2.89,5.83,4.33-1.96,2.53-4.12,4.79-6.29,7.11-2.01,2.11-4.02,4.33-5.31,6.96-.15-1.29-.98-2.06-2.06-2.58-1.39-.62-2.63-1.34-3.87-2.27-2.53-2.01-4.9-4.43-7.06-6.81-4.43-4.9-7.22-11.08-10.31-16.81,5-2.37,10.1-4.69,15.21-7.01m-16.34,11.45c.72,2.11,1.8,4.12,2.84,6.08,.98,1.96,1.96,3.92,3.14,5.77,2.17,3.56,4.79,6.86,8.15,9.38,1.65,1.24,3.4,2.42,5.26,3.35,.88,.46,1.8,.77,2.78,.72,.62-.05,1.44-.57,1.91-.1,.46,.46,.31,1.44,1.34,.98,.82-.41,1.55-1.24,2.17-1.86,1.55-1.65,3.09-3.3,4.59-5.05,1.44-1.65,2.63-3.56,3.82-5.36,.67-1.03,1.34-2.01,2.01-3.04,.46-.72,1.13-1.44,1.13-2.37-.05-1.8-2.27-2.99-3.51-3.97-1.55-1.24-2.94-2.47-4.23-3.92-1.39-1.55-3.14-2.84-4.64-4.33-1.65-1.6-3.09-3.3-4.54-5.05-1.13-1.39-2.32-2.78-3.3-4.28-.77-1.19-1.65-2.06-3.14-1.86-1.19,.26-2.42,.46-3.56,.93-1.19,.46-2.27,.98-3.4,1.5-2.06,.93-3.92,2.11-5.93,3.2-.46,.26-.88,.46-1.29,.77-.21,.15-.46,.52-.67,.62-.15,.1-.31,.05-.52,.1-.82,.21-1.08,.67-1.5,1.39-.67,1.13-.62,1.75-.05,2.89,.52,1.13,.77,2.37,1.13,3.51m80.63,56.3c.52,.82,1.34,.41,1.8-.15,1.44-1.75,2.78-3.61,4.07-5.46,1.29-1.91,2.47-3.82,3.97-5.57,1.5-1.75,2.99-3.51,4.54-5.26,5.77-6.44,11.65-12.73,17.99-18.56,1.55-1.44,3.14-2.84,4.64-4.33,.67-.67,1.44-1.39,1.44-2.37,0-.72-.52-1.6-1.13-1.96-1.39-.82-3.2,1.13-4.23,1.86-.77,.57-1.6,.82-2.42,1.29-.72,.41-1.44,1.03-2.06,1.55-1.39,1.24-2.84,2.27-4.23,3.45-1.39,1.24-2.68,2.63-4.07,3.87-1.5,1.34-3.09,2.47-4.38,3.97s-2.42,3.14-3.76,4.59c-2.89,3.09-5.26,6.6-7.73,10-1.19,1.65-2.11,3.45-2.89,5.36-.41,.93-.77,1.86-1.19,2.84-.36,.88-.41,1.8-.57,2.73,.15,.05,0,1.86,.21,2.17m321.14,152.4c1.08-1.29,1.8-3.2,2.58-4.69,.82-1.6,1.65-3.09,2.01-4.9,.15-.88,.26-1.75,.46-2.63,.21-.82,.46-1.55,.36-2.37-.1-.88-.52-3.56-1.86-3.25-.77,.15-.62,1.03-.62,1.6,0,.72-.1,1.39-.31,2.06-.46,1.6-1.65,2.99-2.37,4.49-.72,1.44-1.55,2.78-2.63,3.97-1.03,1.19-2.17,2.27-3.4,3.25-1.08,.88-2.32,1.5-3.09,2.68-.46,.72-.52,.93-1.39,1.08-.67,.15-1.34,.41-1.91,.82-.67,.46-1.13,1.03-1.86,1.34-.67,.26-1.34,.41-2.01,.67-1.55,.57-2.89,1.55-4.49,2.06-.82,.26-1.65,.52-2.47,.77-.67,.21-1.44,.31-2.01,.77-.93,.77-1.44,2.68-.62,3.66,.88,1.08,2.89,.41,4.02,.26,0,.05,.05,.15,.05,.21,1.91-.36,3.87-.62,5.72-1.19,.98-.31,1.86-.77,2.73-1.29,.77-.41,1.55-.57,2.32-.82,.72-.26,1.29-.62,1.75-1.24,.57-.77,.82-.57,1.7-.77,1.44-.31,2.68-1.96,3.66-2.94,1.24-1.13,2.58-2.27,3.66-3.61M194.87,66.36c.31-.52,1.5-1.03,2.01-1.34,.72-.46,1.44-.93,2.17-1.44,1.29-.93,2.17-.31,3.3,.57,2.11,1.65,2.94,3.82,2.78,6.39,0,.77,.21,2.01-.36,2.63-.57,.62-1.7,.52-2.47,.67-.98,.21-2.42,1.39-3.4,1.08-.88-.31-.57-1.86-.62-2.58-.15-1.29-.57-2.53-1.34-3.56-.41-.52-.88-.98-1.44-1.39-.41-.31-.98-.52-.62-1.03m-3.87,3.87c.82,.15,1.65,.52,2.42,.82,.52,.21,1.19,.41,1.6,.77,.67,.62,.41,1.6,.57,2.37,.1,.46,.31,.88,.15,1.34-.21,.57-.77,.67-1.08,1.13-.46,.67,.1,1.65,.52,2.22,.67,.98,1.55,.46,2.58,.36,1.24-.21,2.47-.21,3.66-.62,.98-.31,1.75-1.08,2.47-.05,.26,.36,.31,.72,.88,.57,.46-.1,.93-.72,1.19-1.03,1.91-1.96,2.37-4.59,2.42-7.22,.1-2.89-.98-5.62-2.47-8.09-.31-.52-.62-1.13-1.08-1.5-.46-.41-1.03-.57-1.44-.98-.62-.67-.46-2.06-1.44-2.37-1.03-.31-2.53,.93-3.3,1.5-1.08,.77-2.17,1.55-3.25,2.37-2.27,1.75-4.85,3.4-6.91,5.41-.72,.67-.98,1.86-.26,2.68,.67,.67,1.91,.15,2.78,.31m122.29,208.13c-.46-2.58-1.19-5.05-2.11-7.53-.57-1.6-1.91-4.33-4.07-4.18-2.37,.15-.77,3.25-.57,4.43,.88,4.79,1.39,9.64,2.11,14.44,.36,2.37,.46,4.85,1.03,7.17,.26,1.13,.67,2.27,1.13,3.35,.31,.67,.67,1.6,1.44,1.91,2.32,.93,1.75-3.14,1.7-4.18-.05-2.47-.1-4.95-.21-7.42h.21c-.26-2.63-.21-5.36-.67-7.99M36.49,323.27c-1.29,.41-2.22,.72-3.61,.62-.98-.1-1.96-.31-2.89-.41-2.47-.31-4.9-.98-7.17-2.01-2.06-.93-4.02-2.06-5.77-3.56-.93-.77-1.7-1.65-2.53-2.53-.57-.62-1.13-1.13-2.01-1.24,.26,1.29,.52,2.32,1.13,3.45,.52,.93,1.08,1.86,1.7,2.68,1.29,1.75,2.89,3.25,4.69,4.49,1.75,1.19,3.76,2.22,5.83,2.73,1.19,.31,2.37,.46,3.56,.72,1.13,.21,2.22,.41,3.35,.26,1.08-.15,2.17-.21,3.25-.46,.82-.26,1.6-.77,2.32-1.24,1.29-.93-.21-4.02-1.86-3.51M78.05,33.01c.62,.82,2.01,.88,1.91-.41-.1-1.13-.41-2.27-.82-3.35-.36-1.08-.31-2.27-.31-3.45-.05-2.73,.05-5.36,.57-8.09,.52-2.58,.82-5.21,1.39-7.78,.57-2.53,1.6-4.9,2.22-7.42,.21-.77,.36-2.27-.77-2.47-.93-.15-1.5,1.19-1.86,1.8-1.24,2.06-2.53,3.97-3.25,6.29-.67,2.06-1.13,4.28-1.39,6.44-.26,2.27-.21,4.59-.36,6.86,.21,2.63,.1,5.57,.98,8.15,.41,1.24,.98,2.53,1.7,3.45m355.53,10.41c-.36,.88-.57,1.86,.1,2.68,1.19,1.55,2.99-1.96,3.3-2.94,.62-2.11,1.39-4.23,1.7-6.39,.36-2.22,.21-4.59,.26-6.86-.21-2.68-.52-5.31-1.19-7.89-.57-2.32-1.13-4.64-3.04-6.19-.77-.62-1.29-.15-1.44,.77-.1,1.03,.15,2.01,.62,2.89,1.08,2.06,1.08,4.49,1.34,6.81,.46,4.59,.77,9.18-.46,13.71-.36,1.19-.77,2.32-1.19,3.4M38.61,94.87c.26,1.03,.57,2.06,.93,3.09,.72,1.96,1.7,3.82,2.89,5.52,1.96,2.84,4.54,5.52,7.37,7.53,.93,.67,3.2,2.47,4.38,1.86,1.65-.82-.57-2.99-1.24-3.61-1.39-1.29-2.73-2.58-4.12-3.87s-2.42-2.94-3.56-4.43c-1.13-1.55-2.22-3.09-3.2-4.74-.52-.82-.98-1.7-1.5-2.53-.46-.72-1.13-1.24-1.7-1.8-.46,.21-.41,.21-.57,.62-.05,.21-.05,.57-.05,.72,.05,.57,.21,1.13,.36,1.65m118.27,16.24c2.63-2.37,5.46-4.38,7.94-6.91,.62-.62,1.08-.98,.57-1.86-.36-.57-.77-.88-1.39-.46-1.44,.93-2.84,2.11-4.23,3.14-2.89,2.11-5.83,4.18-8.4,6.65-1.19,1.13-2.27,2.32-3.14,3.66-.98,1.39-1.65,2.84-.62,4.38,3.14-2.84,6.19-5.77,9.28-8.61m318.41,194.73c-.46-.1-1.24,.41-1.6,.62-1.39,.93-2.84,1.75-4.23,2.63-1.29,.82-2.58,1.65-3.82,2.53-1.08,.72-1.75,1.6-1.39,2.94,.15,.62,.46,1.34,1.13,.98,.52-.26,.98-.52,1.55-.72,1.44-.52,2.89-1.03,4.23-1.75,2.32-1.29,4.49-3.25,4.85-6.03-.15-.36-.21-1.03-.72-1.19m-153.07-27.99c-.46-.52-1.03-.52-1.29,.1s.1,1.75,.15,2.37c.15,1.03,.31,2.06,.52,3.14,.1,.62,.15,2.47,.98,2.73,1.24,.36,1.24-2.58,1.34-3.2-.26-.88-.52-1.75-.77-2.63-.21-.77-.36-1.91-.93-2.53m-205.96-51.3c-.31-.15-.52-.1-.57-.41-.05-.31,.41-.57,.46-.82,.26-.88-.67,.05-1.03,.31,.31,.77,.62,1.6,.98,2.37,.36-.15,.72-.31,1.08-.46-.36-.46-.41-.72-.93-.98M287.31,82.55c.62,.21,1.5-.05,2.11-.21,.62-.1,1.29-.26,1.86-.52,1.39-.57,1.29-2.22,.98-3.51-.46-1.75-1.39-3.4-2.17-5.05-.41-.82-.77-1.7-1.13-2.53-.26-.67-.62-1.55-1.5-1.55-1.29,0-.67,3.04-.46,3.76,.52,1.8,1.5,3.51,2.27,5.21-.72,.05-1.5,.15-2.22,.1-.77-.05-.98,0-1.19,.88-.31,1.24,.1,2.94,1.44,3.4m-11.65-14.95c1.39-.1,2.78-.21,4.18-.41,1.03-.1,2.78-.15,3.51-.93,.52-.57,.41-1.75,0-2.32-.52-.67-1.7-.41-2.47-.41-2.06,.05-4.07,.31-5.93,1.24-.67,.36-2.22,.93-2.06,1.86,.21,1.19,1.96,1.03,2.78,.98m5.83,16.09c-1.19,.31-.93,2.27-.57,3.09,.52,1.24,1.91,1.55,3.14,1.5,.62-.05,1.44,.15,1.91-.36s.41-1.5,.1-2.06c-.41-.72-1.5-1.13-2.22-1.5-.67-.26-1.65-.88-2.37-.67m.15-10.36c.1-1.13-.57-3.71-2.06-3.61-.72,.05-1.34,1.08-1.5,1.7-.15,.67,.05,1.34,.21,2.01,.31,1.08,.72,2.68,2.11,2.47,1.19-.21,1.24-1.6,1.24-2.58m10.98,1.13c.31,.31,.77,.52,1.19,.31,.62-.31,.52-1.03,.52-1.6l.21-.05c-.36-.98-.62-3.09-1.86-3.4-1.24-.26-1.34,1.08-1.19,1.96,.1,.93,.41,2.11,1.13,2.78m-38.72-.1c-.62,.05-1.75,.36-1.65,1.13,.15,1.13,1.91,1.34,2.78,1.44,1.03,.1,2.53,0,1.5-1.29-.57-.88-1.6-1.19-2.63-1.29m-51.5,133.53l-.67,1.29,2.06,.26c.05-.57-1.03-1.24-1.39-1.55"/>
  </g>
</svg>